<svg width="276" height="38" viewBox="0 0 276 38" fill="none" xmlns="http://www.w3.org/2000/svg">
<path d="M26.56 28.4798C24.9333 29.5731 23.0933 30.5731 21.04 31.4798C18.9867 32.3598 17.0133 33.0665 15.12 33.5998C14.2933 33.8398 13.4267 34.0265 12.52 34.1598C11.6133 34.3198 10.7333 34.4665 9.88 34.5998C9.56 34.6531 9.24 34.7065 8.92 34.7598C8.6267 34.8131 8.32 34.8398 8 34.8398C7.8933 34.8398 7.7467 34.8265 7.56 34.7998C7.3733 34.7731 7.28 34.6798 7.28 34.5198C7.28 34.3331 7.4 34.1865 7.64 34.0798C7.9067 33.9731 8.1733 33.8931 8.44 33.8398C8.7067 33.7598 8.9733 33.6665 9.24 33.5598C9.5867 33.4265 9.92 33.2931 10.24 33.1598C10.56 33.0265 10.8933 32.8931 11.24 32.7598C13.4 31.8798 15.48 30.9198 17.48 29.8798C19.48 28.8131 21.3333 27.4665 23.04 25.8398C23.6533 26.2665 24.24 26.7065 24.8 27.1598C25.3867 27.5865 25.9733 28.0265 26.56 28.4798ZM31.56 31.6798C31.56 31.7865 31.4933 31.8931 31.36 31.9998C31.2267 32.0798 31.12 32.1465 31.04 32.1998C27.7333 33.9331 24.36 35.3198 20.92 36.3598C17.48 37.4265 13.88 37.9598 10.12 37.9598C10.0133 37.9598 9.84 37.9598 9.6 37.9598C9.36 37.9598 9.1333 37.9198 8.92 37.8398C8.7067 37.7865 8.6 37.6798 8.6 37.5198C8.6 37.4131 8.6533 37.3198 8.76 37.2398C8.8667 37.1598 8.96 37.1065 9.04 37.0798C9.2533 36.9998 9.4667 36.9331 9.68 36.8798C9.8933 36.8531 10.0933 36.8131 10.28 36.7598C10.6533 36.6531 11.04 36.5465 11.44 36.4398C11.84 36.3331 12.2267 36.2265 12.6 36.1198C14.2267 35.6131 15.96 34.9998 17.8 34.2798C19.64 33.5598 21.4267 32.7465 23.16 31.8398C24.92 30.9331 26.44 29.9331 27.72 28.8398C27.8267 28.9198 28.08 29.0931 28.48 29.3598C28.88 29.6265 29.32 29.9331 29.8 30.2798C30.28 30.5998 30.6933 30.8931 31.04 31.1598C31.3867 31.4265 31.56 31.5998 31.56 31.6798ZM22.52 25.0398C21.64 25.6531 20.5867 26.3465 19.36 27.1198C18.16 27.8931 16.88 28.6398 15.52 29.3598C14.16 30.0531 12.8133 30.6398 11.48 31.1198C10.1733 31.5731 8.9867 31.7998 7.92 31.7998C7.6533 31.7998 7.52 31.6931 7.52 31.4798C7.52 31.3731 7.5733 31.2931 7.68 31.2398C8.24 30.9731 8.7867 30.7065 9.32 30.4398C9.8533 30.1731 10.3733 29.8798 10.88 29.5598C12.4267 28.5731 13.88 27.5065 15.24 26.3598C16.6267 25.2131 17.9467 23.9865 19.2 22.6798L22.52 25.0398ZM39.64 28.5998C39.64 29.1865 39.4 29.6131 38.92 29.8798C38.44 30.1465 37.9467 30.2798 37.44 30.2798C35.9467 30.2798 34.4133 30.0265 32.84 29.5198C31.2667 28.9865 29.72 28.2798 28.2 27.3998C26.7067 26.5198 25.32 25.5465 24.04 24.4798C22.76 23.3865 21.6533 22.2931 20.72 21.1998C20.2933 21.3065 19.8133 21.4531 19.28 21.6398C18.7467 21.8265 18.2933 22.0398 17.92 22.2798C17.5733 22.4931 17.24 22.7465 16.92 23.0398C16.6267 23.3065 16.32 23.5731 16 23.8398C13.8667 25.4931 11.7333 26.8931 9.6 28.0398C7.4667 29.1598 5.08 30.0531 2.44 30.7198C2.2533 30.7731 2.0533 30.8131 1.84 30.8398C1.6267 30.8665 1.4133 30.8798 1.2 30.8798C1.0933 30.8798 0.9867 30.8531 0.88 30.7998C0.8 30.7198 0.76 30.6265 0.76 30.5198C0.76 30.3598 0.7867 30.2531 0.84 30.1998C0.92 30.1465 1.0133 30.0931 1.12 30.0398C2.88 28.9731 4.5467 27.9065 6.12 26.8398C7.6933 25.7731 9.1733 24.5998 10.56 23.3198C11.9733 22.0398 13.3067 20.5598 14.56 18.8798V17.5598C13.4933 18.1731 12.4 18.7598 11.28 19.3198C10.16 19.8531 9.0133 20.2665 7.84 20.5598C7.3333 20.6665 6.8133 20.7865 6.28 20.9198C5.7467 21.0265 5.2133 21.0798 4.68 21.0798C4.6 21.0798 4.4933 21.0531 4.36 20.9998C4.2533 20.9465 4.2 20.8665 4.2 20.7598C4.2 20.5998 4.2667 20.4798 4.4 20.3998C4.5333 20.2931 4.6533 20.2131 4.76 20.1598C5.2133 19.9198 5.6667 19.6798 6.12 19.4398C6.6 19.1998 7.0533 18.9331 7.48 18.6398C8.5733 17.8931 9.6133 17.0665 10.6 16.1598C11.5867 15.2531 12.4933 14.2931 13.32 13.2798L14.56 14.0398V10.6398H11.48C11.6133 10.6931 11.8667 10.8265 12.24 11.0398C12.64 11.2265 13.0133 11.4131 13.36 11.5998C13.7333 11.7865 13.92 11.9331 13.92 12.0398C13.92 12.1198 13.88 12.1865 13.8 12.2398C12.5733 13.0398 11.1867 13.7198 9.64 14.2798C8.12 14.8398 6.6533 15.2798 5.24 15.5998C5 15.6531 4.7467 15.7198 4.48 15.7998C4.2133 15.8531 3.9467 15.8798 3.68 15.8798C3.6 15.8798 3.4933 15.8531 3.36 15.7998C3.2533 15.7465 3.2 15.6665 3.2 15.5598C3.2 15.3998 3.2533 15.2798 3.36 15.1998C3.4667 15.1198 3.5733 15.0531 3.68 14.9998C3.92 14.8665 4.16 14.7465 4.4 14.6398C4.64 14.5065 4.88 14.3598 5.12 14.1998C5.8933 13.6931 6.6267 13.1465 7.32 12.5598C8.0133 11.9465 8.68 11.3065 9.32 10.6398H4.44V8.87978H18.96V17.1998C19.28 17.3065 19.6 17.4131 19.92 17.5198C20.24 17.5998 20.56 17.7065 20.88 17.8398C20.9867 17.8665 21.0667 17.8931 21.12 17.9198C21.2 17.9465 21.24 18.0265 21.24 18.1598C21.24 18.2931 21.1333 18.5065 20.92 18.7998C20.7333 19.0931 20.52 19.3865 20.28 19.6798C20.0667 19.9465 19.9067 20.1331 19.8 20.2398C19.96 20.1598 20.2533 20.0398 20.68 19.8798C21.1067 19.7198 21.56 19.5465 22.04 19.3598C22.5467 19.1465 23 18.9731 23.4 18.8398C23.8267 18.7065 24.1067 18.6398 24.24 18.6398C24.3733 18.6398 24.52 18.6931 24.68 18.7998C24.7067 18.7998 24.8133 18.9465 25 19.2398C25.2133 19.5065 25.4267 19.7865 25.64 20.0798C25.8533 20.3731 25.9733 20.5465 26 20.5998C26.7733 21.6131 27.7067 22.6131 28.8 23.5998C29.8933 24.5865 31.0533 25.4931 32.28 26.3198C33.5067 27.1465 34.6933 27.8398 35.84 28.3998C36.0267 27.8665 36.28 27.4798 36.6 27.2398C36.92 26.9731 37.36 26.8398 37.92 26.8398C38.32 26.8398 38.7067 27.0398 39.08 27.4398C39.4533 27.8131 39.64 28.1998 39.64 28.5998ZM35.12 19.3598H30.52V16.5198C29.6933 16.7865 28.7867 17.0665 27.8 17.3598C26.8133 17.6531 25.8267 17.9065 24.84 18.1198C23.8533 18.3065 22.9333 18.3998 22.08 18.3998C21.84 18.3998 21.72 18.3065 21.72 18.1198C21.72 17.9865 21.8267 17.8665 22.04 17.7598C22.2533 17.6265 22.4133 17.5331 22.52 17.4798C23.9333 16.7865 25.24 16.0798 26.44 15.3598C27.6667 14.6131 28.84 13.6665 29.96 12.5198L30.52 12.8798V10.5998H27.68C27.7867 10.6531 28 10.7598 28.32 10.9198C28.64 11.0798 28.9467 11.2531 29.24 11.4398C29.5333 11.5998 29.68 11.7331 29.68 11.8398C29.68 11.9198 29.64 11.9865 29.56 12.0398C28.7867 12.5198 27.8133 13.0265 26.64 13.5598C25.4933 14.0665 24.32 14.4931 23.12 14.8398C21.92 15.1865 20.8533 15.3598 19.92 15.3598C19.84 15.3598 19.7333 15.3465 19.6 15.3198C19.4933 15.2665 19.44 15.1865 19.44 15.0798C19.44 14.9465 19.4933 14.8398 19.6 14.7598C19.7067 14.6798 19.8133 14.6131 19.92 14.5598C20.9067 14.0265 21.8133 13.4398 22.64 12.7998C23.4667 12.1331 24.2667 11.3998 25.04 10.5998H20.36V8.87978H35.12V19.3598ZM37.56 3.91978C37.56 4.66648 37.24 5.19978 36.6 5.51978C35.96 5.81309 35.3333 5.95978 34.72 5.95978H26.04C25.88 6.19978 25.6 6.53308 25.2 6.95978C24.8 7.35978 24.3733 7.71979 23.92 8.03979C23.4667 8.35979 23.08 8.51978 22.76 8.51978C22.6267 8.51978 22.4933 8.46649 22.36 8.35979C22.2267 8.25309 22.16 8.11978 22.16 7.95978C22.16 7.61308 22.16 7.27978 22.16 6.95978C22.16 6.63978 22.1733 6.30648 22.2 5.95978H16.28L16.4 7.91978L11.68 8.15978L11.56 5.95978H2.64V4.07978H11.48L11.28 0.599785L16 0.439785L16.2 4.07978H22.4C22.48 3.43978 22.5467 2.81309 22.6 2.19979C22.6533 1.55979 22.72 0.919785 22.8 0.279785L27.92 0.959784C28.0533 0.986484 28.16 1.02648 28.24 1.07978C28.32 1.10648 28.36 1.18648 28.36 1.31978C28.36 1.53308 28.28 1.82649 28.12 2.19979C27.96 2.54649 27.7733 2.89308 27.56 3.23978C27.3733 3.58648 27.2133 3.86648 27.08 4.07978H32.4C32.4533 3.41308 32.7067 2.82648 33.16 2.31978C33.6133 1.78648 34.1867 1.51978 34.88 1.51978C35.6533 1.51978 36.2933 1.71979 36.8 2.11979C37.3067 2.51979 37.56 3.11978 37.56 3.91978ZM58.8 12.7998C58.8 13.3598 58.5467 13.7865 58.04 14.0798C57.56 14.3465 57.08 14.4798 56.6 14.4798H53.24V17.7998C53.6933 17.5865 54.1467 17.3731 54.6 17.1598C55.0533 16.9465 55.5067 16.7465 55.96 16.5598C56.0133 16.7198 56.1333 17.0531 56.32 17.5598C56.5333 18.0665 56.76 18.6531 57 19.3198C57.2667 19.9598 57.52 20.5998 57.76 21.2398C58.0267 21.8531 58.24 22.3731 58.4 22.7998C58.56 23.2265 58.64 23.4531 58.64 23.4798C58.64 23.6665 58.56 23.8131 58.4 23.9198C58.2667 23.9998 58.12 24.0398 57.96 24.0398C57.6667 24.0398 57.24 23.8531 56.68 23.4798C56.1467 23.0798 55.6133 22.6398 55.08 22.1598C54.7067 21.8131 54.3467 21.4798 54 21.1598C53.6533 20.8131 53.4 20.5465 53.24 20.3598V36.7998H48.56V21.4798C48.1067 22.4665 47.4533 23.5465 46.6 24.7198C45.7467 25.8931 44.8133 26.9731 43.8 27.9598C42.7867 28.9465 41.76 29.6531 40.72 30.0798C40.6933 30.1065 40.6267 30.1198 40.52 30.1198C40.4667 30.1198 40.4 30.1065 40.32 30.0798C40.24 30.0265 40.2 29.9598 40.2 29.8798C40.2 29.8265 40.24 29.7465 40.32 29.6398C40.4 29.5065 40.4933 29.3465 40.6 29.1598C40.76 28.8398 40.9333 28.5065 41.12 28.1598C41.3333 27.7865 41.4667 27.5465 41.52 27.4398C42.3733 25.7065 43.0933 23.9198 43.68 22.0798C44.2667 20.2398 44.72 18.3731 45.04 16.4798C45.6267 16.6665 46.2133 16.8531 46.8 17.0398C47.3867 17.2265 47.9733 17.3998 48.56 17.5598V14.4798H42.08V12.7198H48.56V7.55978C47.4933 7.69308 46.4267 7.81308 45.36 7.91978C44.2933 7.99978 43.2133 8.03979 42.12 8.03979C42.0133 8.03979 41.88 8.02648 41.72 7.99978C41.56 7.94648 41.48 7.83978 41.48 7.67978C41.48 7.46648 41.64 7.31978 41.96 7.23978C42.1733 7.18648 42.4533 7.09308 42.8 6.95978C43.1733 6.82648 43.4267 6.74648 43.56 6.71978C45.5333 6.02648 47.4267 5.21309 49.24 4.27979C51.0533 3.34649 52.8133 2.30648 54.52 1.15978C54.8667 1.37308 55.2933 1.66649 55.8 2.03979C56.3333 2.41309 56.84 2.78648 57.32 3.15978C57.8 3.50648 58.1467 3.75978 58.36 3.91978C58.4933 4.02648 58.56 4.15978 58.56 4.31978C58.56 4.55978 58.28 4.81308 57.72 5.07978C57.32 5.29308 56.8 5.51978 56.16 5.75978C55.52 5.97308 54.92 6.15978 54.36 6.31978C53.8267 6.47978 53.4533 6.58648 53.24 6.63978V12.7198H54.8C54.8 12.1865 55.0133 11.7465 55.44 11.3998C55.8667 11.0265 56.3333 10.8398 56.84 10.8398C57.3733 10.8398 57.8267 11.0398 58.2 11.4398C58.6 11.8131 58.8 12.2665 58.8 12.7998ZM66.16 20.1598C66.16 20.3998 66.08 20.5865 65.92 20.7198C65.76 20.8265 65.5733 20.8798 65.36 20.8798C65.2 20.8798 65.0667 20.8531 64.96 20.7998C64.8533 20.7465 64.7333 20.6798 64.6 20.5998C63.5067 19.9598 62.3867 19.3465 61.24 18.7598C60.12 18.1731 59.0133 17.5731 57.92 16.9598C58.08 16.7998 58.32 16.5598 58.64 16.2398C58.9867 15.8931 59.3467 15.5465 59.72 15.1998C60.0933 14.8265 60.4 14.5065 60.64 14.2398C61.12 13.7065 61.5467 13.4398 61.92 13.4398C62.16 13.4398 62.4533 13.6398 62.8 14.0398C63.1467 14.4131 63.5067 14.8931 63.88 15.4798C64.28 16.0665 64.6533 16.6798 65 17.3198C65.3467 17.9331 65.6267 18.5065 65.84 19.0398C66.0533 19.5465 66.16 19.9198 66.16 20.1598ZM79.76 20.0398C79.76 20.5998 79.5867 21.1065 79.24 21.5598C78.92 21.9865 78.4933 22.2665 77.96 22.3998L72.8 23.7998V37.0798H68.2V24.8398L57.32 27.5998L56.72 25.5198L68.2 22.5998V2.55978H72.8V21.5598L74.76 21.0398C74.68 20.9865 74.6267 20.8798 74.6 20.7198C74.5733 20.5331 74.56 20.3865 74.56 20.2798C74.56 19.5598 74.8267 18.9598 75.36 18.4798C75.8933 17.9731 76.52 17.7198 77.24 17.7198C77.8533 17.7198 78.4267 17.9465 78.96 18.3998C79.4933 18.8531 79.76 19.3998 79.76 20.0398ZM66.84 11.4398C66.84 11.9198 66.5733 12.1598 66.04 12.1598C65.9067 12.1598 65.7733 12.1331 65.64 12.0798C65.5333 12.0265 65.4133 11.9731 65.28 11.9198C64.16 11.3331 63.04 10.7331 61.92 10.1198C60.8267 9.47978 59.7333 8.85308 58.64 8.23978C58.8 8.07978 59.0533 7.81309 59.4 7.43979C59.7467 7.03978 60.12 6.62649 60.52 6.19979C60.9467 5.77309 61.3467 5.41309 61.72 5.11979C62.0933 4.79979 62.3733 4.63978 62.56 4.63978C62.8 4.63978 63.0933 4.83978 63.44 5.23978C63.8133 5.61308 64.1867 6.09308 64.56 6.67978C64.96 7.26648 65.3333 7.87979 65.68 8.51978C66.0267 9.15979 66.3067 9.74648 66.52 10.2798C66.7333 10.8131 66.84 11.1998 66.84 11.4398ZM109.4 28.9198C109.4 29.7465 109.067 30.4531 108.4 31.0398C107.76 31.5998 107.093 32.0398 106.4 32.3598C105.04 32.9998 103.587 33.4798 102.04 33.7998C100.52 34.0931 99.013 34.2398 97.52 34.2398C96.24 34.2398 94.96 34.1198 93.68 33.8798C92.427 33.6398 91.24 33.2398 90.12 32.6798C89 32.1198 88.0533 31.3731 87.28 30.4398C86.5067 29.4798 85.9733 28.2931 85.68 26.8798C85.8667 26.7465 86.2 26.5065 86.68 26.1598C87.1867 25.7865 87.6933 25.4398 88.2 25.1198C88.7067 24.7998 89.0533 24.6398 89.24 24.6398C89.48 24.6398 89.64 24.7865 89.72 25.0798C89.8533 25.4798 89.9867 25.8665 90.12 26.2398C90.253 26.5865 90.427 26.9465 90.64 27.3198C91.493 28.7598 92.707 29.8665 94.28 30.6398C95.853 31.4131 97.453 31.7998 99.08 31.7998C100.173 31.7998 101.227 31.7198 102.24 31.5598C103.28 31.3731 104.307 31.1065 105.32 30.7598C105.133 30.5465 104.96 30.2931 104.8 29.9998C104.667 29.6798 104.6 29.3731 104.6 29.0798C104.6 28.4931 104.84 27.9865 105.32 27.5598C105.8 27.1065 106.32 26.8798 106.88 26.8798C107.413 26.8798 107.96 27.0665 108.52 27.4398C109.107 27.8131 109.4 28.3065 109.4 28.9198ZM107.32 9.27979C107.32 9.91979 107.04 10.5998 106.48 11.3198C105.92 12.0131 105.267 12.6531 104.52 13.2398C103.8 13.8265 103.187 14.2798 102.68 14.5998C102.493 14.7331 102.28 14.8798 102.04 15.0398C101.827 15.1731 101.613 15.2931 101.4 15.3998C101.213 15.4798 101 15.5198 100.76 15.5198C100.573 15.5198 100.413 15.4798 100.28 15.3998C100.147 15.2931 100.08 15.1465 100.08 14.9598C100.08 14.7465 100.173 14.4398 100.36 14.0398C100.547 13.6131 100.733 13.1598 100.92 12.6798C101.107 12.1731 101.2 11.7198 101.2 11.3198C101.2 10.8398 101.053 10.5065 100.76 10.3198C100.493 10.1065 100.16 9.97308 99.76 9.91978C99.387 9.83978 99.027 9.78648 98.68 9.75978C98.333 9.73308 97.96 9.71978 97.56 9.71978C97.187 9.69308 96.813 9.67978 96.44 9.67978C95.053 9.67978 93.653 9.74648 92.24 9.87978C90.853 10.0131 89.4667 10.1598 88.08 10.3198L88.12 7.83978C90.973 7.59978 93.84 7.47978 96.72 7.47978C98.32 7.47978 99.92 7.53308 101.52 7.63978C103.147 7.71978 104.747 7.93308 106.32 8.27979C106.533 8.30649 106.733 8.38649 106.92 8.51978C107.187 8.62648 107.32 8.87979 107.32 9.27979ZM114.88 11.4398C114.88 11.5198 114.827 11.6131 114.72 11.7198C114.64 11.7998 114.547 11.8398 114.44 11.8398C114.253 11.8398 113.933 11.7598 113.48 11.5998C113.027 11.4398 112.52 11.2398 111.96 10.9998C111.427 10.7598 110.907 10.5331 110.4 10.3198C109.92 10.1065 109.547 9.95978 109.28 9.87978C109.2 9.85308 109.093 9.81308 108.96 9.75978C108.853 9.70648 108.8 9.62648 108.8 9.51978C108.8 9.35979 108.96 9.09308 109.28 8.71978C109.6 8.31978 109.933 7.95978 110.28 7.63978C110.653 7.29308 110.92 7.11979 111.08 7.11979C111.373 7.11979 111.733 7.29308 112.16 7.63978C112.587 7.95978 113 8.37308 113.4 8.87978C113.827 9.35978 114.173 9.83978 114.44 10.3198C114.733 10.7731 114.88 11.1465 114.88 11.4398ZM117.36 7.71978C117.36 7.79978 117.307 7.89308 117.2 7.99978C117.12 8.07978 117.027 8.11979 116.92 8.11979C116.84 8.11979 116.613 8.03978 116.24 7.87978C115.893 7.69308 115.493 7.49309 115.04 7.27979C114.587 7.03979 114.16 6.81309 113.76 6.59978C113.387 6.38648 113.133 6.23978 113 6.15978C112.893 6.10648 112.693 6.03978 112.4 5.95978C112.133 5.85308 111.88 5.73308 111.64 5.59978C111.4 5.46649 111.28 5.34648 111.28 5.23978C111.28 5.07978 111.44 4.81309 111.76 4.43979C112.08 4.06648 112.427 3.71978 112.8 3.39978C113.2 3.07978 113.48 2.91978 113.64 2.91978C113.96 2.91978 114.333 3.10648 114.76 3.47978C115.187 3.85308 115.587 4.31978 115.96 4.87978C116.36 5.41308 116.693 5.94648 116.96 6.47978C117.227 6.98648 117.36 7.39978 117.36 7.71978ZM152.24 28.0398C152.24 28.5465 152.04 29.0531 151.64 29.5598C151.267 30.0398 150.813 30.4798 150.28 30.8798C149.773 31.2531 149.32 31.5598 148.92 31.7998C148.093 32.2531 147.093 32.6931 145.92 33.1198C144.773 33.5465 143.6 33.8931 142.4 34.1598C141.227 34.4531 140.16 34.5998 139.2 34.5998C138.08 34.5998 136.893 34.4798 135.64 34.2398C134.387 34.0265 133.2 33.6531 132.08 33.1198C130.987 32.5598 130.093 31.8265 129.4 30.9198C128.707 29.9865 128.36 28.8265 128.36 27.4398C128.36 26.2398 128.667 25.1331 129.28 24.1198C129.92 23.1065 130.733 22.1865 131.72 21.3598C132.707 20.5331 133.747 19.7998 134.84 19.1598C135.933 18.5198 136.947 17.9731 137.88 17.5198C137.4 17.1465 137.013 16.7065 136.72 16.1998C136.427 15.6665 136.2 15.1065 136.04 14.5198C135.933 14.1465 135.84 13.7731 135.76 13.3998C135.707 13.0265 135.653 12.6531 135.6 12.2798C135.413 10.8131 135.24 9.34648 135.08 7.87978C134.947 6.41308 134.813 4.94648 134.68 3.47978L139.48 3.19979C139.533 4.34649 139.573 5.49308 139.6 6.63978C139.627 7.78648 139.667 8.94648 139.72 10.1198C139.747 10.7065 139.773 11.3065 139.8 11.9198C139.827 12.5065 139.893 13.1065 140 13.7198C140.027 13.8531 140.08 14.0798 140.16 14.3998C140.267 14.6931 140.4 14.9731 140.56 15.2398C140.72 15.4798 140.893 15.5998 141.08 15.5998C141.24 15.5998 141.507 15.4931 141.88 15.2798C142.253 15.0398 142.627 14.8131 143 14.5998C143.4 14.3865 143.72 14.2798 143.96 14.2798C144.2 14.2798 144.373 14.3198 144.48 14.3998C144.613 14.4798 144.773 14.5998 144.96 14.7598C145.147 14.9198 145.387 15.1731 145.68 15.5198C145.973 15.8398 146.227 16.1865 146.44 16.5598C146.68 16.9065 146.8 17.2131 146.8 17.4798C146.8 17.9065 146.64 18.1865 146.32 18.3198C146.027 18.4531 145.693 18.5198 145.32 18.5198C145.133 18.5198 144.947 18.5198 144.76 18.5198C144.6 18.4931 144.427 18.4798 144.24 18.4798C143.147 18.4798 141.92 18.6531 140.56 18.9998C139.2 19.3465 137.893 19.8665 136.64 20.5598C135.413 21.2531 134.387 22.1065 133.56 23.1198C132.76 24.1065 132.36 25.2531 132.36 26.5598C132.36 27.7865 132.747 28.7998 133.52 29.5998C134.293 30.3731 135.227 30.9465 136.32 31.3198C137.44 31.6931 138.52 31.8798 139.56 31.8798C141.053 31.8798 142.627 31.6931 144.28 31.3198C145.96 30.9465 147.48 30.4398 148.84 29.7998C147.987 29.5065 147.56 28.8931 147.56 27.9598C147.56 27.3998 147.813 26.9331 148.32 26.5598C148.853 26.1598 149.387 25.9598 149.92 25.9598C150.507 25.9598 151.04 26.1598 151.52 26.5598C152 26.9331 152.24 27.4265 152.24 28.0398ZM189.84 20.4798C189.84 22.4531 189.413 24.2931 188.56 25.9998C187.707 27.6798 186.587 29.1998 185.2 30.5598C183.973 31.7865 182.653 32.7731 181.24 33.5198C179.827 34.2665 178.32 34.9331 176.72 35.5198C176.453 35.5998 176.027 35.7331 175.44 35.9198C174.88 36.1065 174.32 36.2798 173.76 36.4398C173.2 36.5998 172.8 36.6798 172.56 36.6798C172.453 36.6798 172.333 36.6398 172.2 36.5598C172.067 36.5065 172 36.4131 172 36.2798C172 36.1198 172.067 35.9865 172.2 35.8798C172.333 35.7731 172.453 35.7065 172.56 35.6798C173.093 35.4665 173.707 35.1998 174.4 34.8798C175.093 34.5598 175.707 34.2265 176.24 33.8798C177.787 32.8931 179.213 31.7331 180.52 30.3998C181.853 29.0398 182.92 27.5198 183.72 25.8398C184.52 24.1598 184.92 22.3731 184.92 20.4798C184.92 19.5731 184.773 18.6531 184.48 17.7198C184.213 16.7598 183.76 15.9598 183.12 15.3198C182.48 14.6798 181.613 14.3598 180.52 14.3598C179.773 14.3598 178.88 14.5731 177.84 14.9998C176.827 15.4265 175.827 15.9465 174.84 16.5598C173.88 17.1465 173.107 17.6798 172.52 18.1598C172.387 18.2665 172.24 18.3731 172.08 18.4798C171.92 18.5865 171.733 18.6398 171.52 18.6398C171.253 18.6398 171.067 18.5598 170.96 18.3998C170.88 18.2131 170.813 18.0265 170.76 17.8398C170.627 17.3865 170.533 16.8931 170.48 16.3598C170.453 15.8265 170.413 15.3198 170.36 14.8398C172.013 14.0398 173.707 13.4131 175.44 12.9598C177.173 12.5065 178.96 12.2798 180.8 12.2798C183.493 12.2798 185.667 12.9331 187.32 14.2398C189 15.5465 189.84 17.6265 189.84 20.4798ZM184.6 8.91978C184.6 9.15978 184.467 9.30649 184.2 9.35979C183.933 9.38649 183.72 9.39978 183.56 9.39978C182.947 9.39978 182.333 9.35979 181.72 9.27979C181.133 9.17309 180.533 9.05308 179.92 8.91978C179.707 8.86648 179.28 8.73308 178.64 8.51978C178.027 8.30649 177.36 8.06648 176.64 7.79978C175.947 7.50648 175.347 7.22648 174.84 6.95978C174.333 6.66648 174.08 6.41309 174.08 6.19979C174.08 6.11979 174.187 5.93308 174.4 5.63978C174.613 5.31978 174.867 4.98648 175.16 4.63978C175.48 4.26648 175.773 3.93308 176.04 3.63978C176.307 3.34648 176.48 3.15978 176.56 3.07978C176.773 2.91978 177 2.83978 177.24 2.83978C177.4 2.83978 177.533 2.87978 177.64 2.95978C177.827 3.06648 178.067 3.27978 178.36 3.59978C178.653 3.89308 178.88 4.11979 179.04 4.27979C179.707 5.02648 180.44 5.70648 181.24 6.31978C182.067 6.90648 182.893 7.46648 183.72 7.99978C183.88 8.10648 184.067 8.22649 184.28 8.35979C184.493 8.49308 184.6 8.67978 184.6 8.91978ZM216.88 25.3598L216.8 33.0398C217.813 32.9065 218.813 32.7065 219.8 32.4398C220.813 32.1731 221.8 31.8665 222.76 31.5198C222.227 30.9065 221.72 30.2798 221.24 29.6398C220.76 28.9998 220.293 28.3465 219.84 27.6798C220.96 27.3065 222.08 26.9331 223.2 26.5598C224.32 26.1865 225.427 25.7865 226.52 25.3598H216.88ZM214.28 12.7198V10.0798H211.32V12.7198H214.28ZM214.28 8.43979V5.91978H211.32V8.43979H214.28ZM221.24 12.7198V10.0798H218.64V12.7198H221.24ZM221.24 8.43979V5.91978H218.64V8.43979H221.24ZM228.96 5.91978H225.64V8.43979H225.84C225.92 8.14648 226.08 7.91978 226.32 7.75978C226.587 7.57308 226.867 7.47978 227.16 7.47978C227.533 7.47978 227.84 7.61308 228.08 7.87978C228.32 8.11978 228.44 8.42648 228.44 8.79978C228.44 9.30648 228.28 9.65308 227.96 9.83978C227.64 9.99978 227.267 10.0798 226.84 10.0798C226.413 10.0798 226.013 10.0798 225.64 10.0798V12.7198H226.2C227.133 12.7198 227.827 12.4665 228.28 11.9598C228.733 11.4265 228.96 10.7065 228.96 9.79978V5.91978ZM237.72 35.9198C237.72 36.3731 237.52 36.7598 237.12 37.0798C236.747 37.4265 236.333 37.5998 235.88 37.5998C233.453 37.5998 231.28 37.1598 229.36 36.2798C227.467 35.4265 225.653 34.1865 223.92 32.5598C222.373 34.0265 220.587 35.0798 218.56 35.7198C216.533 36.3598 214.493 36.8265 212.44 37.1198L212.52 25.3598H210.48C210.213 27.4665 209.653 29.4265 208.8 31.2398C207.947 33.0265 206.64 34.5865 204.88 35.9198C204.533 36.1865 204.067 36.4665 203.48 36.7598C202.893 37.0798 202.373 37.2398 201.92 37.2398C201.813 37.2398 201.72 37.1865 201.64 37.0798C201.587 36.9998 201.56 36.9198 201.56 36.8398C201.56 36.7865 201.667 36.6131 201.88 36.3198C202.12 36.0531 202.36 35.7598 202.6 35.4398C202.867 35.1198 203.027 34.9065 203.08 34.7998C204.413 32.8265 205.253 30.7065 205.6 28.4398C205.973 26.1731 206.16 23.8665 206.16 21.5198C206.16 20.6131 206.147 19.7198 206.12 18.8398C206.12 17.9331 206.107 17.0265 206.08 16.1198H232C232.027 15.5065 232.227 14.9731 232.6 14.5198C233 14.0398 233.52 13.7998 234.16 13.7998C234.773 13.7998 235.32 13.9731 235.8 14.3198C236.307 14.6398 236.56 15.1331 236.56 15.7998C236.56 16.5198 236.333 17.0398 235.88 17.3598C235.453 17.6798 234.907 17.8398 234.24 17.8398H210.8C210.8 18.5065 210.8 19.1731 210.8 19.8398C210.827 20.5065 210.84 21.1865 210.84 21.8798C210.84 22.1465 210.827 22.4265 210.8 22.7198C210.8 22.9865 210.787 23.2665 210.76 23.5598H232.72C232.773 23.0265 233 22.5731 233.4 22.1998C233.827 21.8265 234.307 21.6398 234.84 21.6398C235.373 21.6398 235.867 21.8131 236.32 22.1598C236.773 22.4798 237 22.9198 237 23.4798C237 24.0131 236.8 24.4665 236.4 24.8398C236.027 25.1865 235.573 25.3598 235.04 25.3598H230.6C230.707 25.4398 230.907 25.6131 231.2 25.8798C231.493 26.1465 231.773 26.4131 232.04 26.6798C232.307 26.9465 232.44 27.1331 232.44 27.2398C232.44 27.4265 232.32 27.5865 232.08 27.7198C232.027 27.7465 231.707 27.7865 231.12 27.8398C230.533 27.8931 229.84 27.9465 229.04 27.9998C228.267 28.0531 227.547 28.1065 226.88 28.1598C226.213 28.1865 225.773 28.2131 225.56 28.2398C226.547 29.7865 227.747 31.2398 229.16 32.5998C230.6 33.9598 232.133 35.0665 233.76 35.9198V35.8798C233.867 35.3465 234.093 34.8931 234.44 34.5198C234.813 34.1731 235.293 33.9998 235.88 33.9998C236.413 33.9998 236.853 34.1865 237.2 34.5598C237.547 34.9331 237.72 35.3865 237.72 35.9198ZM230.76 19.9998C230.76 20.5065 230.573 20.9065 230.2 21.1998C229.853 21.4665 229.44 21.5998 228.96 21.5998H213.56V19.8798H227.28C227.36 19.4798 227.573 19.1465 227.92 18.8798C228.267 18.6131 228.64 18.4798 229.04 18.4798C229.44 18.4798 229.827 18.6265 230.2 18.9198C230.573 19.2131 230.76 19.5731 230.76 19.9998ZM233.64 9.99978C233.64 11.2531 233.333 12.1865 232.72 12.7998C232.107 13.3865 231.333 13.7731 230.4 13.9598C229.467 14.1465 228.493 14.2398 227.48 14.2398H206.84V4.19979H214.28V0.759785H218.64V4.19979H221.24V0.799784H225.64V4.19979H233.64V9.99978ZM263.52 18.3998H255.28V21.3598H261.92C262.507 21.3598 262.92 21.1865 263.16 20.8398C263.4 20.4931 263.52 20.0531 263.52 19.5198V18.3998ZM270.32 30.0398C270.32 30.4398 270.16 30.7998 269.84 31.1198C269.547 31.4398 269.187 31.5998 268.76 31.5998C267.933 31.5998 267.053 31.3198 266.12 30.7598C265.187 30.1998 264.32 29.5465 263.52 28.7998C262.72 28.0265 262.067 27.3331 261.56 26.7198V32.7598H257.16V26.1198C256.093 27.1331 254.907 28.0131 253.6 28.7598C252.32 29.5065 250.947 30.0265 249.48 30.3198C249.453 30.3198 249.413 30.3331 249.36 30.3598C249.307 30.3598 249.253 30.3598 249.2 30.3598C249.12 30.3598 249.027 30.3465 248.92 30.3198C248.84 30.2665 248.8 30.1865 248.8 30.0798C248.8 29.9198 248.893 29.7731 249.08 29.6398C250.387 28.6798 251.587 27.6531 252.68 26.5598C253.773 25.4398 254.747 24.1998 255.6 22.8398H251.16V16.8398H267.76V19.3998C267.76 20.4931 267.36 21.3465 266.56 21.9598C265.787 22.5465 264.893 22.8398 263.88 22.8398H261.56V25.6398C262.653 25.1065 263.733 24.5465 264.8 23.9598C265.867 23.3465 266.88 22.6665 267.84 21.9198C268 22.0531 268.28 22.2931 268.68 22.6398C269.08 22.9865 269.453 23.3465 269.8 23.7198C270.147 24.0931 270.32 24.3731 270.32 24.5598C270.32 24.7465 270.253 24.8798 270.12 24.9598C270.013 25.0398 269.72 25.1198 269.24 25.1998C268.76 25.2531 268.213 25.3198 267.6 25.3998C267.013 25.4531 266.453 25.5065 265.92 25.5598C265.413 25.6131 265.053 25.6531 264.84 25.6798C265.133 26.2931 265.533 26.9998 266.04 27.7998C266.573 28.5998 267.08 29.2531 267.56 29.7598C267.667 29.4665 267.84 29.2265 268.08 29.0398C268.347 28.8265 268.64 28.7198 268.96 28.7198C269.333 28.7198 269.653 28.8531 269.92 29.1198C270.187 29.3598 270.32 29.6665 270.32 30.0398ZM270.2 13.3198C270.2 13.8531 270.027 14.2798 269.68 14.5998C269.333 14.9198 268.893 15.0798 268.36 15.0798H249.44V13.4398H257.2V10.7198H251.52V9.03979H257.2V6.03979H261.6V9.03979H264C264 8.50648 264.187 8.06648 264.56 7.71978C264.96 7.34648 265.427 7.15978 265.96 7.15978C266.413 7.15978 266.84 7.34648 267.24 7.71978C267.64 8.09308 267.84 8.50648 267.84 8.95978C267.84 9.49308 267.627 9.91979 267.2 10.2398C266.8 10.5598 266.347 10.7198 265.84 10.7198H261.6V13.4398H266.44C266.493 12.9065 266.693 12.4665 267.04 12.1198C267.387 11.7465 267.827 11.5598 268.36 11.5598C268.84 11.5598 269.267 11.7331 269.64 12.0798C270.013 12.4265 270.2 12.8398 270.2 13.3198ZM271.16 5.31978H248.72L248.64 33.9998H266.44C267.72 33.9998 268.693 33.7065 269.36 33.1198C270.053 32.5065 270.52 31.7198 270.76 30.7598C271.027 29.7731 271.16 28.7465 271.16 27.6798V5.31978ZM276 27.3998C276 30.5731 275.28 32.8131 273.84 34.1198C272.4 35.4531 270.107 36.1198 266.96 36.1198H244.08L244.16 3.15978H276V27.3998Z" fill="#4E301B"/>
</svg>
