<svg width="143" height="12" viewBox="0 0 143 12" fill="none" xmlns="http://www.w3.org/2000/svg">
<path d="M10.048 3.37006C10.048 3.50076 9.992 3.56606 9.88 3.56606C9.8427 3.56606 9.81 3.56606 9.782 3.56606C9.754 3.55676 9.7307 3.53336 9.712 3.49606C9.7027 3.47736 9.6887 3.43536 9.67 3.37006C9.6607 3.29536 9.656 3.24406 9.656 3.21606C9.6093 2.93606 9.5393 2.62805 9.446 2.29205C9.362 1.94675 9.2267 1.66676 9.04 1.45206C8.9467 1.34006 8.788 1.26535 8.564 1.22805C8.34 1.19075 8.1113 1.17205 7.878 1.17205C7.6447 1.17205 7.4627 1.17205 7.332 1.17205C7.192 1.17205 7.0193 1.17205 6.814 1.17205C6.618 1.17205 6.4407 1.20935 6.282 1.28405C6.1327 1.35875 6.058 1.50806 6.058 1.73206C6.058 3.14136 6.0627 4.55535 6.072 5.97405C6.0907 7.38335 6.1 8.79736 6.1 10.2161C6.1 10.3374 6.1513 10.4308 6.254 10.4961C6.3567 10.5521 6.4733 10.5894 6.604 10.6081C6.7347 10.6268 6.842 10.6361 6.926 10.6361C7.0007 10.6361 7.066 10.6361 7.122 10.6361C7.1873 10.6268 7.2527 10.6221 7.318 10.6221C7.4113 10.6221 7.458 10.6641 7.458 10.7481C7.458 10.7854 7.458 10.8414 7.458 10.9161C7.458 10.9814 7.4253 11.0141 7.36 11.0141C7.024 11.0141 6.688 11.0094 6.352 11.0001C6.0253 10.9814 5.694 10.9721 5.358 10.9721C4.91 10.9721 4.4527 10.9861 3.986 11.0141C3.8833 11.0141 3.776 11.0188 3.664 11.0281C3.552 11.0374 3.4447 11.0421 3.342 11.0421C3.258 11.0421 3.216 10.9908 3.216 10.8881C3.216 10.7761 3.23 10.7061 3.258 10.6781C3.286 10.6501 3.3513 10.6361 3.454 10.6361C3.4727 10.6361 3.4913 10.6408 3.51 10.6501C3.538 10.6501 3.5567 10.6501 3.566 10.6501C3.6687 10.6501 3.7993 10.6408 3.958 10.6221C4.1167 10.6034 4.2567 10.5661 4.378 10.5101C4.5087 10.4448 4.574 10.3468 4.574 10.2161C4.5833 9.49736 4.588 8.77875 4.588 8.06005C4.5973 7.34135 4.602 6.62275 4.602 5.90405C4.602 5.19475 4.5973 4.49005 4.588 3.79005C4.5787 3.08075 4.574 2.37136 4.574 1.66206C4.574 1.55006 4.5273 1.44735 4.434 1.35405C4.35 1.26075 4.2567 1.20935 4.154 1.20005C4.07 1.18135 3.9813 1.17205 3.888 1.17205C3.804 1.17205 3.7153 1.17205 3.622 1.17205H2.376C2.04 1.17205 1.788 1.25606 1.62 1.42406C1.4613 1.58276 1.3493 1.79275 1.284 2.05405C1.2187 2.30605 1.158 2.56735 1.102 2.83805C1.102 2.85675 1.088 2.92205 1.06 3.03405C1.0413 3.13675 1.018 3.23936 0.989998 3.34206C0.971298 3.43536 0.957298 3.48676 0.947998 3.49606C0.910698 3.54276 0.854699 3.56606 0.779999 3.56606C0.677299 3.56606 0.625999 3.51476 0.625999 3.41206C0.625999 3.37476 0.625999 3.32806 0.625999 3.27206C0.635299 3.20676 0.644699 3.13205 0.653999 3.04805C0.672699 2.83335 0.686699 2.57675 0.695999 2.27805C0.714699 1.97005 0.728699 1.68536 0.737999 1.42406C0.747299 1.33076 0.751999 1.23735 0.751999 1.14405C0.751999 1.05075 0.756699 0.966752 0.765999 0.892052C0.765999 0.761352 0.845298 0.705352 1.004 0.724052C1.6853 0.789352 2.3713 0.822052 3.062 0.822052C3.762 0.812752 4.4527 0.808052 5.134 0.808052H6.324C6.7067 0.808052 7.0893 0.808052 7.472 0.808052C7.864 0.798752 8.256 0.789352 8.648 0.780052C8.816 0.770752 8.9887 0.766052 9.166 0.766052C9.3527 0.756752 9.5347 0.752052 9.712 0.752052C9.8333 0.752052 9.9033 0.798752 9.922 0.892052C9.9313 0.920052 9.9407 1.02275 9.95 1.20005C9.9593 1.36805 9.9687 1.56406 9.978 1.78806C9.9873 2.00276 9.992 2.20805 9.992 2.40405C10.0013 2.59075 10.006 2.72135 10.006 2.79605C10.0153 2.88935 10.0247 2.98275 10.034 3.07605C10.0433 3.16935 10.048 3.26736 10.048 3.37006ZM15.234 9.36205C15.1967 8.94205 15.1733 8.52205 15.164 8.10205C15.164 7.67275 15.1593 7.24336 15.15 6.81406H14.954C14.6647 6.81406 14.3427 6.86076 13.988 6.95406C13.6427 7.03806 13.3113 7.16875 12.994 7.34605C12.6767 7.52335 12.4153 7.74735 12.21 8.01805C12.014 8.27935 11.916 8.58276 11.916 8.92805C11.916 9.37605 12.042 9.71675 12.294 9.95005C12.546 10.1741 12.8867 10.2861 13.316 10.2861C13.5213 10.2861 13.7453 10.2394 13.988 10.1461C14.2307 10.0434 14.464 9.92205 14.688 9.78205C14.912 9.64205 15.094 9.50205 15.234 9.36205ZM17.684 10.2581C17.684 10.2954 17.6793 10.3234 17.67 10.3421C17.5767 10.5474 17.418 10.7061 17.194 10.8181C16.9793 10.9208 16.7647 10.9721 16.55 10.9721C16.158 10.9721 15.8733 10.8601 15.696 10.6361C15.528 10.4028 15.3927 10.1181 15.29 9.78205C14.9353 10.1088 14.5433 10.3841 14.114 10.6081C13.6847 10.8228 13.2227 10.9301 12.728 10.9301C12.3827 10.9301 12.056 10.8648 11.748 10.7341C11.4493 10.5941 11.2067 10.3934 11.02 10.1321C10.8333 9.87076 10.74 9.55335 10.74 9.18005C10.74 8.78805 10.838 8.45205 11.034 8.17205C11.2393 7.88275 11.496 7.64005 11.804 7.44405C12.1213 7.23875 12.4573 7.07536 12.812 6.95406C13.176 6.82336 13.5167 6.72536 13.834 6.66006C14.0487 6.61336 14.268 6.57135 14.492 6.53405C14.716 6.49675 14.9353 6.45935 15.15 6.42205C15.15 6.16075 15.136 5.85735 15.108 5.51205C15.0893 5.16675 15.0193 4.88205 14.898 4.65805C14.7767 4.44335 14.6133 4.25205 14.408 4.08405C14.2027 3.91605 13.974 3.83205 13.722 3.83205C13.2927 3.83205 12.9567 3.94405 12.714 4.16805C12.4713 4.39205 12.2987 4.70936 12.196 5.12006C12.1867 5.16676 12.1773 5.21806 12.168 5.27406C12.168 5.32076 12.1633 5.36735 12.154 5.41405C12.1447 5.47006 12.1073 5.52135 12.042 5.56805C11.986 5.60535 11.9253 5.62405 11.86 5.62405C11.6827 5.62405 11.5193 5.58205 11.37 5.49805C11.23 5.41405 11.16 5.27406 11.16 5.07806C11.16 4.96606 11.1787 4.86805 11.216 4.78405C11.3373 4.49475 11.5333 4.25675 11.804 4.07005C12.0747 3.87405 12.3733 3.72476 12.7 3.62206C13.036 3.51936 13.3487 3.46806 13.638 3.46806C14.142 3.46806 14.5993 3.56135 15.01 3.74805C15.4207 3.93475 15.7473 4.21005 15.99 4.57405C16.242 4.92875 16.368 5.37675 16.368 5.91805C16.368 6.52475 16.3633 7.13605 16.354 7.75205C16.354 8.36805 16.3727 8.98405 16.41 9.60005C16.4193 9.80535 16.4613 9.98736 16.536 10.1461C16.6107 10.2954 16.7647 10.3701 16.998 10.3701C17.1193 10.3701 17.2453 10.3421 17.376 10.2861C17.516 10.2208 17.6047 10.1881 17.642 10.1881C17.67 10.1881 17.684 10.2114 17.684 10.2581ZM22.877 10.3561C22.877 10.4401 22.812 10.5241 22.681 10.6081C22.56 10.6921 22.411 10.7668 22.233 10.8321C22.056 10.8974 21.8833 10.9488 21.7153 10.9861C21.5566 11.0234 21.4399 11.0421 21.3653 11.0421C20.8799 11.0421 20.5019 10.9814 20.2313 10.8601C19.9699 10.7388 19.7833 10.5381 19.6713 10.2581C19.5686 9.97806 19.5173 9.60005 19.5173 9.12405C19.5173 8.34935 19.5173 7.57476 19.5173 6.80006C19.5266 6.01606 19.5359 5.23675 19.5453 4.46205H18.5373C18.4719 4.46205 18.4159 4.48075 18.3693 4.51805C18.3319 4.54605 18.2899 4.56005 18.2432 4.56005C18.1966 4.56005 18.1733 4.52735 18.1733 4.46205C18.1733 4.42475 18.1966 4.35005 18.2432 4.23805C18.2993 4.12605 18.3366 4.05135 18.3553 4.01405C18.3833 4.02335 18.4253 4.02805 18.4813 4.02805H19.5733L19.5873 2.25005C19.8019 2.11005 19.9979 1.95606 20.1753 1.78806C20.3526 1.61076 20.5299 1.43335 20.7073 1.25605C20.7259 1.23735 20.7446 1.22335 20.7633 1.21405C20.7819 1.19535 20.8006 1.18605 20.8193 1.18605C20.9033 1.18605 20.9453 1.21875 20.9453 1.28405L20.8613 4.01405C21.1599 4.01405 21.4539 4.00935 21.7433 4.00005C22.042 3.99075 22.336 3.98605 22.625 3.98605C22.747 3.98605 22.807 4.05605 22.807 4.19605C22.807 4.37335 22.728 4.46205 22.569 4.46205H20.8613C20.8613 5.17135 20.8566 5.88535 20.8473 6.60405C20.8473 7.31335 20.8473 8.02736 20.8473 8.74606V9.82405C20.8473 10.0574 20.9453 10.2208 21.1413 10.3141C21.3373 10.3981 21.5286 10.4401 21.7153 10.4401C21.9766 10.4401 22.233 10.3981 22.485 10.3141C22.513 10.2954 22.555 10.2768 22.611 10.2581C22.667 10.2394 22.709 10.2301 22.737 10.2301C22.831 10.2301 22.877 10.2721 22.877 10.3561ZM28.702 6.08605C28.693 5.70335 28.66 5.33936 28.604 4.99406C28.548 4.63936 28.413 4.35005 28.198 4.12605C27.984 3.89275 27.634 3.77605 27.148 3.77605C26.71 3.77605 26.35 3.89735 26.07 4.14005C25.8 4.37335 25.59 4.67206 25.44 5.03606C25.291 5.39076 25.179 5.75475 25.104 6.12805C25.338 6.13735 25.566 6.14675 25.79 6.15605C26.014 6.15605 26.238 6.15605 26.462 6.15605C26.836 6.15605 27.209 6.15135 27.582 6.14205C27.956 6.12335 28.329 6.10475 28.702 6.08605ZM30.312 9.29205C30.312 9.33875 30.303 9.36675 30.284 9.37605C30.256 9.46935 30.186 9.58135 30.074 9.71205C29.972 9.84275 29.855 9.96875 29.724 10.09C29.594 10.2021 29.486 10.2861 29.402 10.3421C29.094 10.5568 28.744 10.7294 28.352 10.8601C27.97 10.9908 27.587 11.0561 27.204 11.0561C26.887 11.0561 26.532 11.0048 26.14 10.9021C25.758 10.7994 25.431 10.6594 25.16 10.4821C24.638 10.1368 24.255 9.68405 24.012 9.12405C23.77 8.56405 23.648 7.98075 23.648 7.37405C23.648 6.68335 23.784 6.04405 24.054 5.45605C24.325 4.86805 24.759 4.39205 25.356 4.02805C25.627 3.86935 25.93 3.73875 26.266 3.63605C26.602 3.52406 26.924 3.46806 27.232 3.46806C27.783 3.46806 28.268 3.58005 28.688 3.80405C29.108 4.02805 29.435 4.34535 29.668 4.75605C29.911 5.15735 30.032 5.63805 30.032 6.19805C30.032 6.35675 29.995 6.45935 29.92 6.50605C29.855 6.55275 29.752 6.57605 29.612 6.57605C29.426 6.57605 29.239 6.57135 29.052 6.56205C28.866 6.55275 28.679 6.54335 28.492 6.53405C28.231 6.51535 27.97 6.50605 27.708 6.50605C27.456 6.50605 27.2 6.50605 26.938 6.50605C26.621 6.50605 26.304 6.50605 25.986 6.50605C25.669 6.50605 25.352 6.51535 25.034 6.53405C25.025 6.68335 25.016 6.82806 25.006 6.96806C24.997 7.10806 24.992 7.25275 24.992 7.40205C24.992 7.74735 25.034 8.10676 25.118 8.48006C25.202 8.84406 25.338 9.18475 25.524 9.50205C25.711 9.81005 25.949 10.0621 26.238 10.2581C26.528 10.4448 26.878 10.5381 27.288 10.5381C27.708 10.5381 28.11 10.4728 28.492 10.3421C28.875 10.2114 29.225 10.0014 29.542 9.71205C29.626 9.62805 29.701 9.53935 29.766 9.44605C29.841 9.34335 29.92 9.25475 30.004 9.18005C30.051 9.13335 30.102 9.11005 30.158 9.11005C30.205 9.11005 30.242 9.12875 30.27 9.16605C30.298 9.20335 30.312 9.24535 30.312 9.29205ZM36.415 8.99805C36.415 9.41805 36.322 9.76335 36.135 10.034C35.948 10.2954 35.706 10.4961 35.407 10.6361C35.108 10.7761 34.782 10.8741 34.427 10.9301C34.072 10.9861 33.727 11.0141 33.391 11.0141C33.083 11.0141 32.775 10.9814 32.467 10.9161C32.168 10.8508 31.865 10.8041 31.557 10.7761C31.492 10.5241 31.426 10.272 31.361 10.0201C31.305 9.76805 31.24 9.52075 31.165 9.27805C31.156 9.25005 31.132 9.18475 31.095 9.08205C31.067 8.97935 31.053 8.92336 31.053 8.91405C31.053 8.83935 31.076 8.78806 31.123 8.76006C31.17 8.72276 31.226 8.70406 31.291 8.70406C31.356 8.70406 31.403 8.72736 31.431 8.77406C31.487 8.83936 31.534 8.92805 31.571 9.04005C31.618 9.15205 31.66 9.25005 31.697 9.33405C31.772 9.48335 31.837 9.60005 31.893 9.68405C31.949 9.75875 32.038 9.85675 32.159 9.97805C32.523 10.3608 32.976 10.5521 33.517 10.5521C33.816 10.5521 34.086 10.5194 34.329 10.4541C34.581 10.3888 34.782 10.2674 34.931 10.09C35.08 9.90335 35.155 9.63735 35.155 9.29205C35.155 8.99335 35.062 8.74606 34.875 8.55006C34.688 8.34476 34.446 8.16275 34.147 8.00405C33.858 7.84535 33.55 7.69135 33.223 7.54205C32.896 7.39275 32.584 7.22936 32.285 7.05206C31.996 6.86536 31.758 6.64135 31.571 6.38005C31.384 6.11875 31.291 5.80135 31.291 5.42805C31.291 4.97075 31.408 4.59735 31.641 4.30805C31.884 4.01875 32.192 3.80405 32.565 3.66405C32.938 3.51475 33.326 3.44006 33.727 3.44006C33.988 3.44006 34.222 3.47276 34.427 3.53806C34.642 3.60336 34.866 3.67805 35.099 3.76205C35.174 3.79005 35.248 3.80875 35.323 3.81805C35.398 3.82735 35.472 3.83205 35.547 3.83205C35.594 3.83205 35.636 3.83205 35.673 3.83205C35.71 3.83205 35.748 3.82735 35.785 3.81805C35.813 3.98605 35.836 4.15875 35.855 4.33605C35.883 4.50405 35.906 4.67675 35.925 4.85405C35.934 4.91935 35.944 4.99876 35.953 5.09206C35.972 5.17606 35.981 5.25536 35.981 5.33006C35.981 5.39536 35.967 5.46535 35.939 5.54005C35.911 5.60535 35.855 5.63805 35.771 5.63805C35.706 5.63805 35.65 5.63335 35.603 5.62405C35.566 5.60535 35.533 5.56335 35.505 5.49805C35.458 5.40475 35.416 5.30676 35.379 5.20406C35.351 5.09206 35.318 4.98936 35.281 4.89606C35.16 4.56936 34.95 4.30805 34.651 4.11205C34.352 3.90675 34.03 3.80405 33.685 3.80405C33.246 3.80405 32.915 3.93475 32.691 4.19605C32.467 4.44805 32.355 4.78876 32.355 5.21806C32.355 5.36736 32.392 5.51205 32.467 5.65205C32.551 5.79205 32.644 5.91335 32.747 6.01605C32.943 6.20275 33.172 6.34735 33.433 6.45005C33.704 6.55275 33.96 6.65536 34.203 6.75806C34.52 6.89806 34.847 7.06605 35.183 7.26205C35.528 7.45805 35.818 7.69605 36.051 7.97605C36.294 8.25605 36.415 8.59675 36.415 8.99805ZM45.631 10.8461C45.631 10.8928 45.608 10.9301 45.561 10.9581C45.515 10.9768 45.468 10.9861 45.421 10.9861C45.188 10.9861 44.95 10.9814 44.707 10.9721C44.474 10.9534 44.236 10.9441 43.993 10.9441C43.723 10.9441 43.447 10.9534 43.167 10.9721C42.897 10.9908 42.626 11.0001 42.355 11.0001C42.309 11.0001 42.276 10.9721 42.257 10.9161C42.248 10.8508 42.243 10.7994 42.243 10.7621C42.243 10.6968 42.276 10.6641 42.341 10.6641C42.444 10.6641 42.542 10.6688 42.635 10.6781C42.738 10.6781 42.836 10.6781 42.929 10.6781C43.051 10.6781 43.144 10.6408 43.209 10.5661C43.284 10.4821 43.326 10.3841 43.335 10.2721C43.354 10.0388 43.359 9.80535 43.349 9.57205C43.349 9.33875 43.349 9.11005 43.349 8.88605C43.349 8.60606 43.349 8.33075 43.349 8.06005C43.349 7.78005 43.349 7.50005 43.349 7.22005C43.349 6.94005 43.349 6.66005 43.349 6.38005C43.349 6.10005 43.34 5.82005 43.321 5.54005C43.312 5.41875 43.298 5.30206 43.279 5.19006C43.27 5.06876 43.247 4.95205 43.209 4.84005C43.116 4.58805 42.962 4.39675 42.747 4.26605C42.542 4.12605 42.304 4.05605 42.033 4.05605C41.716 4.05605 41.403 4.14005 41.095 4.30805C40.787 4.46675 40.531 4.66736 40.325 4.91006C40.101 5.17136 39.938 5.40005 39.835 5.59605C39.733 5.79205 39.667 5.99735 39.639 6.21205C39.621 6.42675 39.611 6.70676 39.611 7.05206V9.51605C39.611 9.61875 39.607 9.76335 39.597 9.95005C39.597 10.1368 39.621 10.3048 39.667 10.4541C39.723 10.6034 39.831 10.6781 39.989 10.6781C40.083 10.6781 40.171 10.6734 40.255 10.6641C40.339 10.6548 40.428 10.6501 40.521 10.6501C40.605 10.6501 40.647 10.6968 40.647 10.7901C40.647 10.8368 40.638 10.8834 40.619 10.9301C40.61 10.9674 40.577 10.9861 40.521 10.9861C40.204 10.9861 39.877 10.9814 39.541 10.9721C39.215 10.9534 38.888 10.9441 38.561 10.9441C38.263 10.9441 37.959 10.9581 37.651 10.9861C37.614 10.9861 37.581 10.9908 37.553 11.0001C37.525 11.0001 37.493 11.0001 37.455 11.0001C37.409 11.0001 37.371 10.9768 37.343 10.9301C37.325 10.8741 37.315 10.8274 37.315 10.7901C37.315 10.6874 37.367 10.6361 37.469 10.6361C37.525 10.6361 37.581 10.6408 37.637 10.6501C37.693 10.6501 37.754 10.6501 37.819 10.6501C37.95 10.6501 38.085 10.6314 38.225 10.5941C38.375 10.5474 38.454 10.4401 38.463 10.2721C38.482 9.96406 38.487 9.65605 38.477 9.34805C38.477 9.04005 38.477 8.73676 38.477 8.43806C38.477 7.85936 38.477 7.28536 38.477 6.71606C38.487 6.14676 38.491 5.57736 38.491 5.00806C38.491 4.41076 38.487 3.81806 38.477 3.23006C38.468 2.63276 38.459 2.03536 38.449 1.43806C38.449 1.33536 38.431 1.22335 38.393 1.10205C38.356 0.971351 38.272 0.906052 38.141 0.906052C38.011 0.906052 37.875 0.915352 37.735 0.934052C37.595 0.952752 37.455 0.962051 37.315 0.962051C37.231 0.962051 37.189 0.924752 37.189 0.850052C37.189 0.766052 37.231 0.710053 37.315 0.682053C37.502 0.635353 37.684 0.598053 37.861 0.570053C38.048 0.542053 38.23 0.509354 38.407 0.472054C38.566 0.434754 38.753 0.383354 38.967 0.318054C39.191 0.243354 39.378 0.206055 39.527 0.206055C39.583 0.206055 39.616 0.224754 39.625 0.262054C39.635 0.290054 39.639 0.327354 39.639 0.374054C39.639 1.13935 39.639 1.90475 39.639 2.67005C39.639 3.43535 39.63 4.20076 39.611 4.96606C39.817 4.75136 40.064 4.53675 40.353 4.32205C40.652 4.10735 40.969 3.93005 41.305 3.79005C41.641 3.64075 41.959 3.56606 42.257 3.56606C42.864 3.56606 43.34 3.65475 43.685 3.83205C44.031 4.00935 44.273 4.28475 44.413 4.65805C44.553 5.02205 44.623 5.49805 44.623 6.08605C44.623 6.78605 44.619 7.48605 44.609 8.18605C44.609 8.87675 44.609 9.57206 44.609 10.2721C44.609 10.4214 44.647 10.5288 44.721 10.5941C44.805 10.6501 44.922 10.6781 45.071 10.6781C45.137 10.6781 45.197 10.6734 45.253 10.6641C45.319 10.6548 45.384 10.6501 45.449 10.6501C45.496 10.6501 45.538 10.6734 45.575 10.7201C45.613 10.7574 45.631 10.7994 45.631 10.8461ZM50.206 10.7901C50.206 10.8368 50.192 10.8834 50.164 10.9301C50.136 10.9674 50.098 10.9861 50.052 10.9861C49.79 10.9861 49.529 10.9814 49.268 10.9721C49.016 10.9534 48.754 10.9441 48.484 10.9441H48.106C47.826 10.9441 47.546 10.9534 47.266 10.9721C46.995 10.9814 46.724 10.9861 46.454 10.9861C46.416 10.9861 46.388 10.9628 46.37 10.9161C46.36 10.8694 46.356 10.8321 46.356 10.8041C46.356 10.7574 46.36 10.7248 46.37 10.7061C46.379 10.6781 46.407 10.6594 46.454 10.6501C46.5 10.6314 46.552 10.6268 46.608 10.6361C46.673 10.6361 46.734 10.6361 46.79 10.6361C46.855 10.6361 46.916 10.6408 46.972 10.6501C47.028 10.6501 47.088 10.6501 47.154 10.6501C47.284 10.6501 47.401 10.6221 47.504 10.5661C47.616 10.5008 47.672 10.3934 47.672 10.2441V4.64405C47.672 4.48535 47.644 4.36405 47.588 4.28005C47.532 4.18675 47.415 4.14005 47.238 4.14005C47.107 4.14005 46.972 4.14935 46.832 4.16805C46.701 4.17735 46.57 4.19135 46.44 4.21005C46.365 4.21005 46.328 4.16805 46.328 4.08405C46.328 3.99075 46.365 3.93005 46.44 3.90205C46.552 3.86475 46.668 3.84135 46.79 3.83205C46.92 3.81335 47.042 3.79475 47.154 3.77605C47.415 3.72935 47.676 3.67806 47.938 3.62206C48.199 3.56606 48.456 3.50536 48.708 3.44006C48.736 3.43076 48.773 3.42606 48.82 3.42606C48.922 3.42606 48.974 3.48206 48.974 3.59406C48.974 4.69536 48.969 5.80136 48.96 6.91206C48.96 8.02276 48.96 9.13336 48.96 10.2441C48.96 10.3934 49.025 10.5008 49.156 10.5661C49.296 10.6221 49.426 10.6501 49.548 10.6501C49.641 10.6501 49.734 10.6454 49.828 10.6361C49.93 10.6268 50.028 10.6221 50.122 10.6221C50.159 10.6221 50.182 10.6454 50.192 10.6921C50.201 10.7388 50.206 10.7714 50.206 10.7901ZM49.072 1.10205C49.072 1.33535 48.988 1.53606 48.82 1.70406C48.652 1.86276 48.451 1.94205 48.218 1.94205C47.984 1.94205 47.784 1.86276 47.616 1.70406C47.448 1.53606 47.364 1.33535 47.364 1.10205C47.364 0.868751 47.448 0.672753 47.616 0.514053C47.784 0.346053 47.984 0.262054 48.218 0.262054C48.451 0.262054 48.652 0.346053 48.82 0.514053C48.988 0.672753 49.072 0.868751 49.072 1.10205ZM59.218 10.7901C59.218 10.9114 59.148 10.9721 59.008 10.9721C58.803 10.9721 58.593 10.9674 58.378 10.9581C58.163 10.9394 57.949 10.9301 57.734 10.9301C57.417 10.9301 57.09 10.9394 56.754 10.9581C56.427 10.9674 56.101 10.9721 55.774 10.9721C55.737 10.9721 55.713 10.9441 55.704 10.8881C55.695 10.8228 55.69 10.7714 55.69 10.7341C55.69 10.6594 55.737 10.6221 55.83 10.6221C55.923 10.6221 55.998 10.6221 56.054 10.6221C56.101 10.6221 56.147 10.6268 56.194 10.6361C56.25 10.6361 56.301 10.6361 56.348 10.6361C56.619 10.6361 56.768 10.5008 56.796 10.2301C56.824 9.67936 56.833 9.12406 56.824 8.56406C56.824 8.00406 56.824 7.44876 56.824 6.89806C56.824 6.79536 56.824 6.69275 56.824 6.59005C56.824 6.47805 56.824 6.37075 56.824 6.26805C56.815 6.05335 56.801 5.79205 56.782 5.48405C56.763 5.16675 56.721 4.91005 56.656 4.71405C56.507 4.22875 56.18 3.98605 55.676 3.98605C55.219 3.98605 54.799 4.10275 54.416 4.33605C54.033 4.56935 53.702 4.86336 53.422 5.21806C53.413 5.89936 53.408 6.57605 53.408 7.24805C53.408 7.92005 53.408 8.59205 53.408 9.26405V10.2301C53.408 10.3701 53.469 10.4728 53.59 10.5381C53.711 10.6034 53.833 10.6361 53.954 10.6361C54.029 10.6361 54.099 10.6314 54.164 10.6221C54.239 10.6034 54.309 10.5941 54.374 10.5941C54.411 10.5941 54.435 10.6174 54.444 10.6641C54.453 10.7108 54.458 10.7481 54.458 10.7761C54.458 10.8134 54.444 10.8554 54.416 10.9021C54.397 10.9488 54.36 10.9721 54.304 10.9721C54.099 10.9721 53.893 10.9674 53.688 10.9581C53.492 10.9394 53.291 10.9301 53.086 10.9301C52.769 10.9301 52.451 10.9394 52.134 10.9581C51.817 10.9674 51.495 10.9721 51.168 10.9721C51.121 10.9721 51.093 10.9441 51.084 10.8881C51.084 10.8228 51.084 10.7714 51.084 10.7341C51.084 10.6594 51.126 10.6221 51.21 10.6221C51.294 10.6221 51.359 10.6221 51.406 10.6221C51.453 10.6221 51.499 10.6268 51.546 10.6361C51.593 10.6361 51.639 10.6361 51.686 10.6361C51.957 10.6361 52.106 10.5008 52.134 10.2301C52.143 10.0994 52.148 9.96875 52.148 9.83805C52.148 9.70735 52.148 9.57675 52.148 9.44605C52.148 8.64335 52.148 7.84076 52.148 7.03806C52.148 6.22606 52.143 5.41875 52.134 4.61605C52.134 4.48535 52.106 4.35475 52.05 4.22405C51.994 4.09335 51.887 4.02805 51.728 4.02805C51.607 4.02805 51.49 4.04675 51.378 4.08405C51.266 4.12135 51.149 4.14005 51.028 4.14005C50.963 4.14005 50.93 4.09335 50.93 4.00005C50.93 3.98135 50.93 3.96275 50.93 3.94405C50.939 3.91605 50.949 3.89735 50.958 3.88805C50.967 3.87875 50.981 3.87405 51 3.87405C51.019 3.86475 51.033 3.85535 51.042 3.84605C51.21 3.79935 51.383 3.76675 51.56 3.74805C51.747 3.72935 51.924 3.70135 52.092 3.66405C52.251 3.63605 52.405 3.59876 52.554 3.55206C52.703 3.49606 52.853 3.46806 53.002 3.46806C53.067 3.46806 53.119 3.50076 53.156 3.56606C53.203 3.65006 53.24 3.77135 53.268 3.93005C53.296 4.07935 53.315 4.23335 53.324 4.39205C53.343 4.55075 53.352 4.68135 53.352 4.78405C53.557 4.57875 53.8 4.37805 54.08 4.18205C54.369 3.97675 54.668 3.80875 54.976 3.67805C55.293 3.53805 55.601 3.46806 55.9 3.46806C56.759 3.46806 57.337 3.65935 57.636 4.04205C57.944 4.41535 58.098 5.00805 58.098 5.82005C58.098 6.54805 58.093 7.27605 58.084 8.00405C58.084 8.73205 58.084 9.46006 58.084 10.1881C58.084 10.3654 58.135 10.4868 58.238 10.5521C58.35 10.6081 58.481 10.6361 58.63 10.6361C58.705 10.6361 58.779 10.6314 58.854 10.6221C58.929 10.6034 58.999 10.5941 59.064 10.5941C59.12 10.5941 59.157 10.6174 59.176 10.6641C59.204 10.7014 59.218 10.7434 59.218 10.7901ZM64.494 9.36205C64.456 8.94205 64.433 8.52205 64.424 8.10205C64.424 7.67275 64.419 7.24336 64.41 6.81406H64.214C63.924 6.81406 63.602 6.86076 63.248 6.95406C62.902 7.03806 62.571 7.16875 62.254 7.34605C61.936 7.52335 61.675 7.74735 61.47 8.01805C61.274 8.27935 61.176 8.58276 61.176 8.92805C61.176 9.37605 61.302 9.71675 61.554 9.95005C61.806 10.1741 62.146 10.2861 62.576 10.2861C62.781 10.2861 63.005 10.2394 63.248 10.1461C63.49 10.0434 63.724 9.92205 63.948 9.78205C64.172 9.64205 64.354 9.50205 64.494 9.36205ZM66.944 10.2581C66.944 10.2954 66.939 10.3234 66.93 10.3421C66.836 10.5474 66.678 10.7061 66.454 10.8181C66.239 10.9208 66.024 10.9721 65.81 10.9721C65.418 10.9721 65.133 10.8601 64.956 10.6361C64.788 10.4028 64.652 10.1181 64.55 9.78205C64.195 10.1088 63.803 10.3841 63.374 10.6081C62.944 10.8228 62.482 10.9301 61.988 10.9301C61.642 10.9301 61.316 10.8648 61.008 10.7341C60.709 10.5941 60.466 10.3934 60.28 10.1321C60.093 9.87076 60 9.55335 60 9.18005C60 8.78805 60.098 8.45205 60.294 8.17205C60.499 7.88275 60.756 7.64005 61.064 7.44405C61.381 7.23875 61.717 7.07536 62.072 6.95406C62.436 6.82336 62.776 6.72536 63.094 6.66006C63.308 6.61336 63.528 6.57135 63.752 6.53405C63.976 6.49675 64.195 6.45935 64.41 6.42205C64.41 6.16075 64.396 5.85735 64.368 5.51205C64.349 5.16675 64.279 4.88205 64.158 4.65805C64.036 4.44335 63.873 4.25205 63.668 4.08405C63.462 3.91605 63.234 3.83205 62.982 3.83205C62.552 3.83205 62.216 3.94405 61.974 4.16805C61.731 4.39205 61.558 4.70936 61.456 5.12006C61.446 5.16676 61.437 5.21806 61.428 5.27406C61.428 5.32076 61.423 5.36735 61.414 5.41405C61.404 5.47006 61.367 5.52135 61.302 5.56805C61.246 5.60535 61.185 5.62405 61.12 5.62405C60.942 5.62405 60.779 5.58205 60.63 5.49805C60.49 5.41405 60.42 5.27406 60.42 5.07806C60.42 4.96606 60.438 4.86805 60.476 4.78405C60.597 4.49475 60.793 4.25675 61.064 4.07005C61.334 3.87405 61.633 3.72476 61.96 3.62206C62.296 3.51936 62.608 3.46806 62.898 3.46806C63.402 3.46806 63.859 3.56135 64.27 3.74805C64.68 3.93475 65.007 4.21005 65.25 4.57405C65.502 4.92875 65.628 5.37675 65.628 5.91805C65.628 6.52475 65.623 7.13605 65.614 7.75205C65.614 8.36805 65.632 8.98405 65.67 9.60005C65.679 9.80535 65.721 9.98736 65.796 10.1461C65.87 10.2954 66.024 10.3701 66.258 10.3701C66.379 10.3701 66.505 10.3421 66.636 10.2861C66.776 10.2208 66.864 10.1881 66.902 10.1881C66.93 10.1881 66.944 10.2114 66.944 10.2581ZM81.223 6.68806C81.223 6.74406 81.209 6.79536 81.181 6.84206C81.153 6.88876 81.106 6.91206 81.041 6.91206H80.173V9.90805C79.52 10.1321 78.871 10.3794 78.227 10.6501C77.919 10.7808 77.592 10.8648 77.247 10.9021C76.911 10.9394 76.58 10.9581 76.253 10.9581C75.973 10.9581 75.66 10.9254 75.315 10.8601C74.97 10.7948 74.634 10.7014 74.307 10.5801C73.99 10.4588 73.71 10.3188 73.467 10.1601C72.758 9.68406 72.23 9.06805 71.885 8.31205C71.549 7.55605 71.381 6.75335 71.381 5.90405C71.381 5.18535 71.493 4.50875 71.717 3.87405C71.95 3.23935 72.282 2.67935 72.711 2.19405C73.14 1.70875 73.654 1.33075 74.251 1.06005C74.858 0.780051 75.534 0.640053 76.281 0.640053C76.832 0.640053 77.359 0.714752 77.863 0.864052C77.947 0.892052 78.082 0.934051 78.269 0.990051C78.456 1.04605 78.642 1.10205 78.829 1.15805C79.016 1.20475 79.142 1.22805 79.207 1.22805C79.403 1.22805 79.538 1.20475 79.613 1.15805C79.688 1.10205 79.744 1.04135 79.781 0.976051C79.828 0.910751 79.893 0.859352 79.977 0.822052H80.089C80.164 0.822052 80.206 0.864051 80.215 0.948051C80.234 1.04135 80.238 1.13935 80.229 1.24205C80.229 1.34475 80.229 1.44736 80.229 1.55006C80.229 1.83936 80.234 2.12875 80.243 2.41805C80.262 2.70735 80.271 3.00136 80.271 3.30006C80.271 3.41206 80.266 3.54275 80.257 3.69205C80.257 3.84135 80.173 3.91605 80.005 3.91605C79.949 3.91605 79.898 3.91135 79.851 3.90205C79.814 3.88335 79.776 3.85075 79.739 3.80405C79.73 3.78535 79.706 3.73406 79.669 3.65005C79.632 3.55675 79.594 3.46336 79.557 3.37006C79.52 3.26736 79.492 3.19736 79.473 3.16006C79.221 2.59076 78.852 2.11476 78.367 1.73206C78.115 1.52676 77.793 1.36335 77.401 1.24205C77.018 1.12075 76.664 1.06005 76.337 1.06005C75.712 1.06005 75.18 1.21406 74.741 1.52206C74.302 1.82076 73.948 2.21275 73.677 2.69805C73.406 3.18335 73.21 3.70605 73.089 4.26605C72.968 4.82605 72.907 5.36735 72.907 5.89005C72.907 6.44075 72.972 6.98205 73.103 7.51405C73.234 8.04605 73.434 8.52675 73.705 8.95605C73.985 9.38535 74.349 9.73075 74.797 9.99205C75.245 10.2441 75.782 10.3701 76.407 10.3701C76.594 10.3701 76.818 10.3514 77.079 10.3141C77.34 10.2768 77.602 10.2113 77.863 10.118C78.124 10.0247 78.339 9.89875 78.507 9.74005C78.684 9.58135 78.773 9.38075 78.773 9.13805V7.29005C78.773 7.14075 78.698 7.04736 78.549 7.01006C78.409 6.96336 78.288 6.94006 78.185 6.94006C78.045 6.94006 77.905 6.94936 77.765 6.96806C77.625 6.97736 77.485 6.98206 77.345 6.98206C77.27 6.98206 77.219 6.95876 77.191 6.91206C77.172 6.86536 77.163 6.80936 77.163 6.74406C77.163 6.68806 77.172 6.63675 77.191 6.59005C77.21 6.53405 77.256 6.50605 77.331 6.50605C77.48 6.50605 77.625 6.51075 77.765 6.52005C77.905 6.52005 78.05 6.52005 78.199 6.52005H79.193C79.352 6.52005 79.51 6.52005 79.669 6.52005C79.828 6.52005 79.986 6.51535 80.145 6.50605C80.304 6.50605 80.458 6.50135 80.607 6.49205C80.756 6.47335 80.906 6.46405 81.055 6.46405C81.111 6.46405 81.153 6.49205 81.181 6.54805C81.209 6.59475 81.223 6.64136 81.223 6.68806ZM88.073 7.30405C88.073 6.90275 88.04 6.50135 87.975 6.10005C87.919 5.68935 87.807 5.31136 87.639 4.96606C87.48 4.62076 87.247 4.34535 86.939 4.14005C86.631 3.92535 86.229 3.81805 85.735 3.81805C85.268 3.81805 84.885 3.93005 84.587 4.15405C84.297 4.37805 84.069 4.66736 83.901 5.02206C83.742 5.37676 83.63 5.75935 83.565 6.17005C83.509 6.58075 83.481 6.96805 83.481 7.33205C83.481 7.73335 83.509 8.13476 83.565 8.53606C83.63 8.93736 83.747 9.30135 83.915 9.62805C84.083 9.94535 84.321 10.2021 84.629 10.3981C84.946 10.5941 85.352 10.6921 85.847 10.6921C86.332 10.6921 86.719 10.5894 87.009 10.3841C87.307 10.1788 87.531 9.90805 87.681 9.57205C87.839 9.23605 87.942 8.87206 87.989 8.48006C88.045 8.07876 88.073 7.68675 88.073 7.30405ZM89.515 7.34605C89.515 8.04605 89.347 8.67605 89.011 9.23605C88.684 9.79605 88.236 10.2394 87.667 10.5661C87.107 10.8928 86.477 11.0561 85.777 11.0561C85.095 11.0561 84.479 10.8928 83.929 10.5661C83.378 10.2301 82.939 9.78675 82.613 9.23605C82.286 8.67605 82.123 8.05535 82.123 7.37405C82.123 6.67405 82.281 6.03005 82.599 5.44205C82.916 4.84475 83.35 4.36405 83.901 4.00005C84.461 3.63605 85.105 3.45406 85.833 3.45406C86.617 3.45406 87.284 3.62205 87.835 3.95805C88.385 4.28475 88.801 4.74206 89.081 5.33006C89.37 5.90876 89.515 6.58075 89.515 7.34605ZM95.256 10.3561C95.256 10.4401 95.191 10.5241 95.06 10.6081C94.939 10.6921 94.789 10.7668 94.612 10.8321C94.435 10.8974 94.262 10.9488 94.094 10.9861C93.935 11.0234 93.819 11.0421 93.744 11.0421C93.259 11.0421 92.881 10.9814 92.61 10.8601C92.349 10.7388 92.162 10.5381 92.05 10.2581C91.947 9.97806 91.896 9.60005 91.896 9.12405C91.896 8.34935 91.896 7.57476 91.896 6.80006C91.905 6.01606 91.915 5.23675 91.924 4.46205H90.916C90.851 4.46205 90.795 4.48075 90.748 4.51805C90.711 4.54605 90.669 4.56005 90.622 4.56005C90.575 4.56005 90.552 4.52735 90.552 4.46205C90.552 4.42475 90.575 4.35005 90.622 4.23805C90.678 4.12605 90.715 4.05135 90.734 4.01405C90.762 4.02335 90.804 4.02805 90.86 4.02805H91.952L91.966 2.25005C92.181 2.11005 92.377 1.95606 92.554 1.78806C92.731 1.61076 92.909 1.43335 93.086 1.25605C93.105 1.23735 93.123 1.22335 93.142 1.21405C93.161 1.19535 93.179 1.18605 93.198 1.18605C93.282 1.18605 93.324 1.21875 93.324 1.28405L93.24 4.01405C93.539 4.01405 93.833 4.00935 94.122 4.00005C94.421 3.99075 94.715 3.98605 95.004 3.98605C95.125 3.98605 95.186 4.05605 95.186 4.19605C95.186 4.37335 95.107 4.46205 94.948 4.46205H93.24C93.24 5.17135 93.235 5.88535 93.226 6.60405C93.226 7.31335 93.226 8.02736 93.226 8.74606V9.82405C93.226 10.0574 93.324 10.2208 93.52 10.3141C93.716 10.3981 93.907 10.4401 94.094 10.4401C94.355 10.4401 94.612 10.3981 94.864 10.3141C94.892 10.2954 94.934 10.2768 94.99 10.2581C95.046 10.2394 95.088 10.2301 95.116 10.2301C95.209 10.2301 95.256 10.2721 95.256 10.3561ZM101.963 7.30405C101.963 6.90275 101.93 6.50135 101.865 6.10005C101.809 5.68935 101.697 5.31136 101.529 4.96606C101.37 4.62076 101.137 4.34535 100.829 4.14005C100.521 3.92535 100.12 3.81805 99.625 3.81805C99.158 3.81805 98.776 3.93005 98.477 4.15405C98.188 4.37805 97.959 4.66736 97.791 5.02206C97.632 5.37676 97.52 5.75935 97.455 6.17005C97.399 6.58075 97.371 6.96805 97.371 7.33205C97.371 7.73335 97.399 8.13476 97.455 8.53606C97.52 8.93736 97.637 9.30135 97.805 9.62805C97.973 9.94535 98.211 10.2021 98.519 10.3981C98.836 10.5941 99.242 10.6921 99.737 10.6921C100.222 10.6921 100.61 10.5894 100.899 10.3841C101.198 10.1788 101.422 9.90805 101.571 9.57205C101.73 9.23605 101.832 8.87206 101.879 8.48006C101.935 8.07876 101.963 7.68675 101.963 7.30405ZM103.405 7.34605C103.405 8.04605 103.237 8.67605 102.901 9.23605C102.574 9.79605 102.126 10.2394 101.557 10.5661C100.997 10.8928 100.367 11.0561 99.667 11.0561C98.986 11.0561 98.37 10.8928 97.819 10.5661C97.268 10.2301 96.83 9.78675 96.503 9.23605C96.176 8.67605 96.013 8.05535 96.013 7.37405C96.013 6.67405 96.172 6.03005 96.489 5.44205C96.806 4.84475 97.24 4.36405 97.791 4.00005C98.351 3.63605 98.995 3.45406 99.723 3.45406C100.507 3.45406 101.174 3.62205 101.725 3.95805C102.276 4.28475 102.691 4.74206 102.971 5.33006C103.26 5.90876 103.405 6.58075 103.405 7.34605ZM115.965 2.74005C115.965 2.82405 115.932 2.89405 115.867 2.95005C115.811 2.99675 115.745 3.02005 115.671 3.02005C115.577 3.02005 115.517 3.00135 115.489 2.96405C115.461 2.91735 115.433 2.85675 115.405 2.78205C115.246 2.27805 115.003 1.90476 114.677 1.66206C114.35 1.41936 113.916 1.29805 113.375 1.29805H110.827V5.51205C111.256 5.50275 111.685 5.49805 112.115 5.49805C112.544 5.48875 112.973 5.46535 113.403 5.42805C113.683 5.40935 113.958 5.37676 114.229 5.33006C114.499 5.28336 114.77 5.23676 115.041 5.19006H115.069C115.087 5.19006 115.106 5.19936 115.125 5.21806C115.153 5.22736 115.167 5.24136 115.167 5.26006C115.167 5.32536 115.134 5.44205 115.069 5.61005C115.003 5.76875 114.957 5.88075 114.929 5.94605C114.882 6.05805 114.812 6.11405 114.719 6.11405C114.653 6.11405 114.583 6.11405 114.509 6.11405C114.443 6.10475 114.373 6.09535 114.299 6.08605C113.972 6.04875 113.641 6.03005 113.305 6.03005C112.978 6.02075 112.651 6.01605 112.325 6.01605C112.203 6.01605 112.059 6.01605 111.891 6.01605C111.723 6.01605 111.555 6.03005 111.387 6.05805C111.228 6.08605 111.093 6.14675 110.981 6.24005C110.878 6.32405 110.827 6.45476 110.827 6.63206V9.79605C110.827 9.89875 110.85 9.99675 110.897 10.09C110.953 10.174 111.018 10.2534 111.093 10.3281C111.233 10.4494 111.405 10.5241 111.611 10.5521C111.825 10.5708 112.021 10.5801 112.199 10.5801C112.329 10.5801 112.395 10.6501 112.395 10.7901C112.395 10.9394 112.311 11.0141 112.143 11.0141C111.993 11.0141 111.839 11.0094 111.681 11.0001C111.522 10.9814 111.363 10.9721 111.205 10.9721C111.018 10.9721 110.827 10.9721 110.631 10.9721C110.444 10.9628 110.257 10.9581 110.071 10.9581C109.753 10.9581 109.436 10.9721 109.119 11.0001C108.811 11.0188 108.493 11.0281 108.167 11.0281C108.129 11.0281 108.087 11.0141 108.041 10.9861C108.003 10.9488 107.985 10.9068 107.985 10.8601C107.985 10.7948 107.989 10.7434 107.999 10.7061C108.017 10.6594 108.064 10.6314 108.139 10.6221C108.213 10.6034 108.293 10.5941 108.377 10.5941C108.461 10.5848 108.54 10.5754 108.615 10.5661C108.96 10.4914 109.175 10.3561 109.259 10.1601C109.352 9.95476 109.399 9.69335 109.399 9.37605V1.88605C109.399 1.67136 109.324 1.53136 109.175 1.46606C109.025 1.40076 108.848 1.36805 108.643 1.36805C108.447 1.36805 108.279 1.36805 108.139 1.36805C107.961 1.36805 107.873 1.28875 107.873 1.13005C107.873 1.05535 107.882 0.990052 107.901 0.934052C107.929 0.878052 107.985 0.850052 108.069 0.850052C108.237 0.850052 108.405 0.854752 108.573 0.864052C108.75 0.873352 108.923 0.878052 109.091 0.878052H111.555C112.021 0.878052 112.488 0.873352 112.955 0.864052C113.431 0.845352 113.902 0.836052 114.369 0.836052C114.798 0.836052 115.227 0.822052 115.657 0.794052C115.703 1.07405 115.764 1.40076 115.839 1.77406C115.923 2.14736 115.965 2.46935 115.965 2.74005ZM121.164 9.36205C121.126 8.94205 121.103 8.52205 121.094 8.10205C121.094 7.67275 121.089 7.24336 121.08 6.81406H120.884C120.594 6.81406 120.272 6.86076 119.918 6.95406C119.572 7.03806 119.241 7.16875 118.924 7.34605C118.606 7.52335 118.345 7.74735 118.14 8.01805C117.944 8.27935 117.846 8.58276 117.846 8.92805C117.846 9.37605 117.972 9.71675 118.224 9.95005C118.476 10.1741 118.816 10.2861 119.246 10.2861C119.451 10.2861 119.675 10.2394 119.918 10.1461C120.16 10.0434 120.394 9.92205 120.618 9.78205C120.842 9.64205 121.024 9.50205 121.164 9.36205ZM123.614 10.2581C123.614 10.2954 123.609 10.3234 123.6 10.3421C123.506 10.5474 123.348 10.7061 123.124 10.8181C122.909 10.9208 122.694 10.9721 122.48 10.9721C122.088 10.9721 121.803 10.8601 121.626 10.6361C121.458 10.4028 121.322 10.1181 121.22 9.78205C120.865 10.1088 120.473 10.3841 120.044 10.6081C119.614 10.8228 119.152 10.9301 118.658 10.9301C118.312 10.9301 117.986 10.8648 117.678 10.7341C117.379 10.5941 117.136 10.3934 116.95 10.1321C116.763 9.87076 116.67 9.55335 116.67 9.18005C116.67 8.78805 116.768 8.45205 116.964 8.17205C117.169 7.88275 117.426 7.64005 117.734 7.44405C118.051 7.23875 118.387 7.07536 118.742 6.95406C119.106 6.82336 119.446 6.72536 119.764 6.66006C119.978 6.61336 120.198 6.57135 120.422 6.53405C120.646 6.49675 120.865 6.45935 121.08 6.42205C121.08 6.16075 121.066 5.85735 121.038 5.51205C121.019 5.16675 120.949 4.88205 120.828 4.65805C120.706 4.44335 120.543 4.25205 120.338 4.08405C120.132 3.91605 119.904 3.83205 119.652 3.83205C119.222 3.83205 118.886 3.94405 118.644 4.16805C118.401 4.39205 118.228 4.70936 118.126 5.12006C118.116 5.16676 118.107 5.21806 118.098 5.27406C118.098 5.32076 118.093 5.36735 118.084 5.41405C118.074 5.47006 118.037 5.52135 117.972 5.56805C117.916 5.60535 117.855 5.62405 117.79 5.62405C117.612 5.62405 117.449 5.58205 117.3 5.49805C117.16 5.41405 117.09 5.27406 117.09 5.07806C117.09 4.96606 117.108 4.86805 117.146 4.78405C117.267 4.49475 117.463 4.25675 117.734 4.07005C118.004 3.87405 118.303 3.72476 118.63 3.62206C118.966 3.51936 119.278 3.46806 119.568 3.46806C120.072 3.46806 120.529 3.56135 120.94 3.74805C121.35 3.93475 121.677 4.21005 121.92 4.57405C122.172 4.92875 122.298 5.37675 122.298 5.91805C122.298 6.52475 122.293 7.13605 122.284 7.75205C122.284 8.36805 122.302 8.98405 122.34 9.60005C122.349 9.80535 122.391 9.98736 122.466 10.1461C122.54 10.2954 122.694 10.3701 122.928 10.3701C123.049 10.3701 123.175 10.3421 123.306 10.2861C123.446 10.2208 123.534 10.1881 123.572 10.1881C123.6 10.1881 123.614 10.2114 123.614 10.2581ZM129.801 4.77005C129.801 4.86335 129.764 4.95206 129.689 5.03606C129.624 5.11076 129.54 5.14806 129.437 5.14806C129.297 5.14806 129.194 5.10136 129.129 5.00806C129.073 4.91476 129.022 4.80735 128.975 4.68605C128.938 4.56475 128.877 4.45735 128.793 4.36405C128.709 4.27075 128.569 4.22405 128.373 4.22405C128.336 4.22405 128.298 4.22405 128.261 4.22405C128.233 4.22405 128.2 4.22875 128.163 4.23805C128.004 4.26605 127.832 4.36405 127.645 4.53205C127.458 4.70005 127.276 4.90076 127.099 5.13406C126.931 5.35806 126.791 5.58205 126.679 5.80605C126.567 6.03005 126.506 6.21675 126.497 6.36605C126.488 6.51535 126.483 6.66476 126.483 6.81406C126.483 6.95406 126.483 7.09405 126.483 7.23405C126.483 7.73805 126.483 8.24206 126.483 8.74606C126.492 9.25006 126.497 9.74936 126.497 10.2441C126.497 10.3841 126.553 10.4868 126.665 10.5521C126.786 10.6081 126.908 10.6361 127.029 10.6361C127.122 10.6361 127.216 10.6314 127.309 10.6221C127.402 10.6128 127.496 10.6081 127.589 10.6081C127.636 10.6081 127.668 10.6314 127.687 10.6781C127.706 10.7154 127.715 10.7528 127.715 10.7901C127.715 10.9394 127.64 11.0141 127.491 11.0141C127.211 11.0141 126.931 11.0094 126.651 11.0001C126.371 10.9814 126.091 10.9721 125.811 10.9721C125.522 10.9721 125.228 10.9814 124.929 11.0001C124.64 11.0188 124.346 11.0281 124.047 11.0281C124.01 11.0281 123.982 11.0001 123.963 10.9441C123.954 10.8881 123.949 10.8414 123.949 10.8041C123.949 10.7108 123.986 10.6594 124.061 10.6501C124.164 10.6314 124.271 10.6268 124.383 10.6361C124.495 10.6454 124.598 10.6501 124.691 10.6501C124.831 10.6501 124.943 10.6221 125.027 10.5661C125.12 10.5008 125.172 10.3934 125.181 10.2441C125.2 9.94536 125.209 9.64205 125.209 9.33405C125.218 9.02605 125.223 8.71806 125.223 8.41006V7.05206C125.214 6.65076 125.209 6.25405 125.209 5.86205C125.218 5.46075 125.204 5.06405 125.167 4.67205C125.158 4.48535 125.106 4.35475 125.013 4.28005C124.92 4.19605 124.78 4.15405 124.593 4.15405C124.518 4.15405 124.439 4.16335 124.355 4.18205C124.28 4.19135 124.201 4.19605 124.117 4.19605C124.042 4.19605 124.005 4.14005 124.005 4.02805C124.005 3.96275 124.038 3.91605 124.103 3.88805C124.196 3.86005 124.294 3.84135 124.397 3.83205C124.5 3.81335 124.598 3.79935 124.691 3.79005C124.943 3.74335 125.195 3.69675 125.447 3.65005C125.699 3.60335 125.951 3.54736 126.203 3.48206C126.287 3.51006 126.348 3.56136 126.385 3.63605C126.404 3.67336 126.418 3.77605 126.427 3.94405C126.436 4.11205 126.441 4.30805 126.441 4.53205C126.441 4.74675 126.441 4.95206 126.441 5.14806C126.441 5.33476 126.441 5.46535 126.441 5.54005C126.646 5.21335 126.88 4.88675 127.141 4.56005C127.402 4.23335 127.701 3.96275 128.037 3.74805C128.373 3.53335 128.751 3.42606 129.171 3.42606C129.395 3.42606 129.54 3.49605 129.605 3.63605C129.67 3.77606 129.712 3.93935 129.731 4.12605C129.75 4.22875 129.764 4.33605 129.773 4.44805C129.792 4.56005 129.801 4.66735 129.801 4.77005ZM142.686 10.8181C142.686 10.9488 142.634 11.0141 142.532 11.0141C142.27 11.0141 142.004 11.0048 141.734 10.9861C141.463 10.9674 141.192 10.9581 140.922 10.9581C140.651 10.9581 140.376 10.9674 140.096 10.9861C139.825 11.0048 139.554 11.0141 139.284 11.0141C139.246 11.0141 139.218 10.9908 139.2 10.9441C139.19 10.8974 139.186 10.8601 139.186 10.8321C139.186 10.7481 139.228 10.6968 139.312 10.6781C139.405 10.6594 139.503 10.6548 139.606 10.6641C139.718 10.6734 139.802 10.6781 139.858 10.6781C139.988 10.6781 140.096 10.6454 140.18 10.5801C140.264 10.5148 140.306 10.4168 140.306 10.2861C140.306 9.66076 140.31 9.04006 140.32 8.42406C140.338 7.80806 140.348 7.19205 140.348 6.57605C140.348 6.47335 140.348 6.37075 140.348 6.26805C140.348 6.16535 140.343 6.06275 140.334 5.96005C140.324 5.73605 140.31 5.50736 140.292 5.27406C140.282 5.03136 140.245 4.80735 140.18 4.60205C140.114 4.38735 140.002 4.21475 139.844 4.08405C139.685 3.95335 139.456 3.88805 139.158 3.88805C138.943 3.88805 138.705 3.95335 138.444 4.08405C138.192 4.20535 137.949 4.35005 137.716 4.51805C137.482 4.68605 137.286 4.84476 137.128 4.99406C137.146 5.12476 137.156 5.26006 137.156 5.40005C137.156 5.53076 137.156 5.66135 137.156 5.79205C137.156 6.06275 137.156 6.33805 137.156 6.61805C137.165 6.88875 137.17 7.15935 137.17 7.43005C137.17 7.90605 137.165 8.38206 137.156 8.85806C137.156 9.33405 137.156 9.81006 137.156 10.2861C137.156 10.4261 137.216 10.5241 137.338 10.5801C137.459 10.6361 137.58 10.6641 137.702 10.6641C137.776 10.6641 137.851 10.6594 137.926 10.6501C138.01 10.6408 138.084 10.6361 138.15 10.6361C138.196 10.6361 138.224 10.6594 138.234 10.7061C138.252 10.7528 138.262 10.7901 138.262 10.8181C138.262 10.8648 138.248 10.9114 138.22 10.9581C138.192 10.9954 138.15 11.0141 138.094 11.0141C137.832 11.0141 137.566 11.0048 137.296 10.9861C137.034 10.9674 136.768 10.9581 136.498 10.9581C136.236 10.9581 135.97 10.9674 135.7 10.9861C135.429 11.0048 135.158 11.0141 134.888 11.0141C134.85 11.0141 134.822 10.9908 134.804 10.9441C134.785 10.8974 134.776 10.8601 134.776 10.8321C134.776 10.7574 134.813 10.7061 134.888 10.6781C134.962 10.6594 135.051 10.6548 135.154 10.6641C135.266 10.6734 135.359 10.6781 135.434 10.6781C135.564 10.6781 135.672 10.6501 135.756 10.5941C135.849 10.5288 135.896 10.4261 135.896 10.2861V6.71606C135.896 6.52006 135.891 6.27735 135.882 5.98805C135.882 5.69875 135.863 5.41406 135.826 5.13406C135.798 4.84476 135.746 4.61605 135.672 4.44805C135.606 4.28005 135.494 4.14935 135.336 4.05605C135.186 3.96275 135.018 3.91605 134.832 3.91605C134.589 3.91605 134.342 3.97675 134.09 4.09805C133.838 4.21935 133.6 4.36875 133.376 4.54605C133.152 4.72335 132.96 4.90076 132.802 5.07806V10.2721C132.802 10.4121 132.853 10.5148 132.956 10.5801C133.058 10.6361 133.17 10.6641 133.292 10.6641C133.366 10.6641 133.441 10.6594 133.516 10.6501C133.59 10.6314 133.66 10.6221 133.726 10.6221C133.763 10.6221 133.786 10.6501 133.796 10.7061C133.805 10.7528 133.81 10.7854 133.81 10.8041C133.81 10.8508 133.796 10.8974 133.768 10.9441C133.749 10.9814 133.712 11.0001 133.656 11.0001C133.478 11.0001 133.301 10.9954 133.124 10.9861C132.946 10.9674 132.769 10.9581 132.592 10.9581C132.237 10.9581 131.882 10.9674 131.528 10.9861C131.173 10.9954 130.818 11.0001 130.464 11.0001C130.426 11.0001 130.398 10.9768 130.38 10.9301C130.361 10.8834 130.352 10.8461 130.352 10.8181C130.352 10.7061 130.398 10.6501 130.492 10.6501C130.594 10.6501 130.692 10.6548 130.786 10.6641C130.879 10.6641 130.972 10.6641 131.066 10.6641C131.196 10.6641 131.308 10.6361 131.402 10.5801C131.495 10.5148 131.542 10.4121 131.542 10.2721C131.542 9.32936 131.537 8.38675 131.528 7.44405C131.528 6.49205 131.528 5.54475 131.528 4.60205C131.528 4.49935 131.518 4.39675 131.5 4.29405C131.481 4.19135 131.42 4.12135 131.318 4.08405C131.252 4.05605 131.182 4.04205 131.108 4.04205C130.986 4.04205 130.865 4.06075 130.744 4.09805C130.622 4.12605 130.496 4.14005 130.366 4.14005C130.282 4.14005 130.24 4.08405 130.24 3.97205C130.24 3.89735 130.268 3.85075 130.324 3.83205C130.37 3.81335 130.422 3.80405 130.478 3.80405C130.543 3.79475 130.604 3.78535 130.66 3.77605C130.874 3.74805 131.089 3.71535 131.304 3.67805C131.528 3.63135 131.742 3.58476 131.948 3.53806C132.022 3.51936 132.102 3.50076 132.186 3.48206C132.27 3.46336 132.354 3.45406 132.438 3.45406C132.55 3.45406 132.624 3.53805 132.662 3.70605C132.708 3.86475 132.732 4.03735 132.732 4.22405C132.741 4.41075 132.746 4.54605 132.746 4.63005C132.942 4.46205 133.161 4.28935 133.404 4.11205C133.646 3.92535 133.903 3.76676 134.174 3.63605C134.444 3.50535 134.715 3.44006 134.986 3.44006C135.462 3.44006 135.863 3.51935 136.19 3.67805C136.516 3.83675 136.796 4.13535 137.03 4.57405C137.235 4.39675 137.468 4.21935 137.73 4.04205C137.991 3.85535 138.262 3.70136 138.542 3.58006C138.831 3.44936 139.116 3.38406 139.396 3.38406C140.012 3.38406 140.478 3.47275 140.796 3.65005C141.122 3.82735 141.342 4.10275 141.454 4.47605C141.575 4.84005 141.636 5.31135 141.636 5.89005C141.636 6.61805 141.631 7.35075 141.622 8.08805C141.612 8.81605 141.608 9.54876 141.608 10.2861C141.608 10.4261 141.668 10.5241 141.79 10.5801C141.92 10.6361 142.046 10.6641 142.168 10.6641C142.242 10.6641 142.312 10.6594 142.378 10.6501C142.452 10.6408 142.522 10.6361 142.588 10.6361C142.625 10.6361 142.648 10.6594 142.658 10.7061C142.676 10.7528 142.686 10.7901 142.686 10.8181Z" fill="#4E301B"/>
</svg>
